<svg width="1440" height="680" viewBox="0 0 1440 680" fill="none" xmlns="http://www.w3.org/2000/svg">
<circle cx="62" cy="15" r="9" fill="white" stroke="white" stroke-width="12"/>
<rect x="-70" y="323.96" width="186.62" height="12" rx="6" transform="rotate(-45 -70 323.96)" fill="white"/>
<rect x="55.9995" y="206" width="206" height="12" rx="6" transform="rotate(-90 55.9995 206)" fill="white"/>
<circle cx="101" cy="78" r="9" fill="white" stroke="white" stroke-width="12"/>
<rect x="-45" y="349.368" width="205.582" height="12" rx="6" transform="rotate(-45 -45 349.368)" fill="white"/>
<rect x="95" y="218" width="155" height="12" rx="6" transform="rotate(-90 95 218)" fill="white"/>
<circle r="8" transform="matrix(1 -8.74228e-08 -8.74228e-08 -1 101 601)" fill="white" stroke="white" stroke-width="14"/>
<rect width="205.582" height="12" rx="6" transform="matrix(0.707107 0.707107 0.707107 -0.707107 -45 329.313)" fill="white"/>
<rect width="155" height="12" rx="6" transform="matrix(4.37114e-08 1 1 -4.37114e-08 95 461)" fill="white"/>
<circle r="9" transform="matrix(1 -8.74228e-08 -8.74228e-08 -1 62 665)" fill="white" stroke="white" stroke-width="12"/>
<rect width="186.62" height="12" rx="6" transform="matrix(0.707107 0.707107 0.707107 -0.707107 -70 359.485)" fill="white"/>
<rect width="203" height="12" rx="6" transform="matrix(4.37114e-08 1 1 -4.37114e-08 56 477)" fill="white"/>
<circle cx="1321" cy="655" r="9" transform="rotate(-180 1321 655)" fill="white" stroke="white" stroke-width="12"/>
<rect x="1399.59" y="458.485" width="110.457" height="12" rx="6" transform="rotate(135 1399.59 458.485)" fill="white"/>
<rect x="1391.11" y="387.59" width="110.457" height="12" rx="6" transform="rotate(-135 1391.11 387.59)" fill="white"/>
<path d="M1321 523C1324.31 523 1327 525.686 1327 529L1327 664C1327 667.314 1324.31 670 1321 670V670C1317.69 670 1315 667.314 1315 664L1315 529C1315 525.686 1317.69 523 1321 523V523Z" fill="white"/>
<rect x="1327" y="179" width="136" height="12" rx="6" transform="rotate(90 1327 179)" fill="white"/>
<rect x="1398" y="374" width="90" height="12" rx="6" transform="rotate(90 1398 374)" fill="white"/>
<circle cx="1369" cy="655" r="9" transform="rotate(-180 1369 655)" fill="white" stroke="white" stroke-width="12"/>
<rect x="1447.59" y="461.485" width="110.457" height="12" rx="6" transform="rotate(135 1447.59 461.485)" fill="white"/>
<rect x="1435.1" y="379.419" width="110.457" height="12" rx="6" transform="rotate(-135 1435.1 379.419)" fill="white"/>
<rect x="1375" y="526" width="132" height="12" rx="6" transform="rotate(90 1375 526)" fill="white"/>
<rect x="1371" y="179" width="128" height="12" rx="6" transform="rotate(90 1371 179)" fill="white"/>
<circle cx="1414" cy="655" r="9" transform="rotate(-180 1414 655)" fill="white" stroke="white" stroke-width="12"/>
<rect x="1492.59" y="465.485" width="110.457" height="12" rx="6" transform="rotate(135 1492.59 465.485)" fill="white"/>
<rect x="1479.1" y="371.419" width="110.457" height="12" rx="6" transform="rotate(-135 1479.1 371.419)" fill="white"/>
<rect x="1420" y="530" width="123" height="12" rx="6" transform="rotate(90 1420 530)" fill="white"/>
<rect x="1414" y="179" width="119" height="12" rx="6" transform="rotate(90 1414 179)" fill="white"/>
<rect x="1276" y="6" width="177" height="177" rx="10" stroke="white" stroke-width="12"/>
<rect x="1321" y="51" width="87" height="87" rx="10" stroke="white" stroke-width="12"/>
</svg>
