<svg width="1440" height="2571" viewBox="0 0 1440 2571" fill="none" xmlns="http://www.w3.org/2000/svg">
<circle cx="62" cy="15" r="9" fill="white" stroke="white" stroke-width="12"/>
<rect x="-70" y="323.96" width="186.62" height="12" rx="6" transform="rotate(-45 -70 323.96)" fill="white"/>
<rect x="55.9995" y="206" width="206" height="12" rx="6" transform="rotate(-90 55.9995 206)" fill="white"/>
<circle cx="101" cy="78" r="9" fill="white" stroke="white" stroke-width="12"/>
<rect x="-45" y="349.368" width="205.582" height="12" rx="6" transform="rotate(-45 -45 349.368)" fill="white"/>
<rect x="95" y="218" width="155" height="12" rx="6" transform="rotate(-90 95 218)" fill="white"/>
<circle r="8" transform="matrix(1 -8.74228e-08 -8.74228e-08 -1 101 601)" fill="white" stroke="white" stroke-width="14"/>
<rect width="205.582" height="12" rx="6" transform="matrix(0.707107 0.707107 0.707107 -0.707107 -45 329.313)" fill="white"/>
<rect width="155" height="12" rx="6" transform="matrix(4.37114e-08 1 1 -4.37114e-08 95 461)" fill="white"/>
<circle r="9" transform="matrix(1 -8.74228e-08 -8.74228e-08 -1 62 665)" fill="white" stroke="white" stroke-width="12"/>
<rect width="186.62" height="12" rx="6" transform="matrix(0.707107 0.707107 0.707107 -0.707107 -70 359.485)" fill="white"/>
<rect width="203" height="12" rx="6" transform="matrix(4.37114e-08 1 1 -4.37114e-08 56 477)" fill="white"/>
<circle cx="62" cy="15" r="9" fill="white" stroke="white" stroke-width="12"/>
<rect x="-70" y="323.96" width="186.62" height="12" rx="6" transform="rotate(-45 -70 323.96)" fill="white"/>
<rect x="55.9995" y="206" width="206" height="12" rx="6" transform="rotate(-90 55.9995 206)" fill="white"/>
<circle cx="101" cy="78" r="9" fill="white" stroke="white" stroke-width="12"/>
<rect x="-45" y="349.368" width="205.582" height="12" rx="6" transform="rotate(-45 -45 349.368)" fill="white"/>
<rect x="95" y="218" width="155" height="12" rx="6" transform="rotate(-90 95 218)" fill="white"/>
<circle r="8" transform="matrix(1 -8.74228e-08 -8.74228e-08 -1 101 601)" fill="white" stroke="white" stroke-width="14"/>
<rect width="205.582" height="12" rx="6" transform="matrix(0.707107 0.707107 0.707107 -0.707107 -45 329.313)" fill="white"/>
<rect width="155" height="12" rx="6" transform="matrix(4.37114e-08 1 1 -4.37114e-08 95 461)" fill="white"/>
<circle r="9" transform="matrix(1 -8.74228e-08 -8.74228e-08 -1 62 665)" fill="white" stroke="white" stroke-width="12"/>
<rect width="186.62" height="12" rx="6" transform="matrix(0.707107 0.707107 0.707107 -0.707107 -70 359.485)" fill="white"/>
<rect width="203" height="12" rx="6" transform="matrix(4.37114e-08 1 1 -4.37114e-08 56 477)" fill="white"/>
<circle cx="1321" cy="641" r="9" transform="rotate(-180 1321 641)" fill="white" stroke="white" stroke-width="12"/>
<rect x="1399.59" y="444.485" width="110.457" height="12" rx="6" transform="rotate(135 1399.59 444.485)" fill="white"/>
<rect x="1391.11" y="373.59" width="110.457" height="12" rx="6" transform="rotate(-135 1391.11 373.59)" fill="white"/>
<path d="M1321 509C1324.31 509 1327 511.686 1327 515L1327 650C1327 653.314 1324.31 656 1321 656C1317.69 656 1315 653.314 1315 650L1315 515C1315 511.686 1317.69 509 1321 509Z" fill="white"/>
<rect x="1327" y="165" width="136" height="12" rx="6" transform="rotate(90 1327 165)" fill="white"/>
<rect x="1398" y="360" width="90" height="12" rx="6" transform="rotate(90 1398 360)" fill="white"/>
<circle cx="1369" cy="641" r="9" transform="rotate(-180 1369 641)" fill="white" stroke="white" stroke-width="12"/>
<rect x="1447.59" y="447.485" width="110.457" height="12" rx="6" transform="rotate(135 1447.59 447.485)" fill="white"/>
<rect x="1435.1" y="365.419" width="110.457" height="12" rx="6" transform="rotate(-135 1435.1 365.419)" fill="white"/>
<rect x="1375" y="512" width="132" height="12" rx="6" transform="rotate(90 1375 512)" fill="white"/>
<rect x="1371" y="165" width="128" height="12" rx="6" transform="rotate(90 1371 165)" fill="white"/>
<circle cx="1414" cy="641" r="9" transform="rotate(-180 1414 641)" fill="white" stroke="white" stroke-width="12"/>
<rect x="1492.59" y="451.485" width="110.457" height="12" rx="6" transform="rotate(135 1492.59 451.485)" fill="white"/>
<rect x="1479.1" y="357.419" width="110.457" height="12" rx="6" transform="rotate(-135 1479.1 357.419)" fill="white"/>
<rect x="1420" y="516" width="123" height="12" rx="6" transform="rotate(90 1420 516)" fill="white"/>
<rect x="1414" y="165" width="119" height="12" rx="6" transform="rotate(90 1414 165)" fill="white"/>
<rect x="1276" y="-8" width="177" height="177" rx="10" stroke="white" stroke-width="12"/>
<rect x="1321" y="37" width="87" height="87" rx="10" stroke="white" stroke-width="12"/>
<circle cx="62" cy="969" r="9" fill="white" stroke="white" stroke-width="12"/>
<rect x="-70" y="1277.96" width="186.62" height="12" rx="6" transform="rotate(-45 -70 1277.96)" fill="white"/>
<rect x="55.9995" y="1160" width="206" height="12" rx="6" transform="rotate(-90 55.9995 1160)" fill="white"/>
<circle cx="136" cy="1012" r="9" fill="white" stroke="white" stroke-width="12"/>
<rect x="23.957" y="1234.41" width="108.062" height="12" rx="6" transform="rotate(-45 23.957 1234.41)" fill="white"/>
<rect x="-45" y="1642.41" width="108.062" height="12" rx="6" transform="rotate(-45 -45 1642.41)" fill="white"/>
<rect x="93" y="1046.41" width="69.7091" height="12" rx="6" transform="rotate(-45 93 1046.41)" fill="white"/>
<rect x="95" y="1172" width="131" height="12" rx="6" transform="rotate(-90 95 1172)" fill="white"/>
<rect x="26" y="1580" width="351" height="12" rx="6.00001" transform="rotate(-90 26 1580)" fill="white"/>
<circle r="9" transform="matrix(1 -8.74228e-08 -8.74228e-08 -1 138.999 1983.9)" fill="white" stroke="white" stroke-width="12"/>
<circle r="9" transform="matrix(1 -8.74228e-08 -8.74228e-08 -1 83 1722)" fill="white" stroke="white" stroke-width="12"/>
<rect width="69.7091" height="12" rx="6" transform="matrix(0.707107 0.707107 0.707107 -0.707107 95.999 1949.49)" fill="white"/>
<rect width="218" height="12" rx="6" transform="matrix(4.37114e-08 1 1 -4.37114e-08 97.999 1737)" fill="white"/>
<rect width="50.2552" height="12" rx="6" transform="matrix(0.707107 0.707107 0.707107 -0.707107 68.5566 1716.04)" fill="white"/>
<circle cx="82.999" cy="2262" r="9" transform="rotate(-180 82.999 2262)" fill="white" stroke="white" stroke-width="12"/>
<circle cx="99" cy="2321" r="9" transform="rotate(-180 99 2321)" fill="white" stroke="white" stroke-width="12"/>
<circle cx="26" cy="2220" r="9" transform="rotate(-180 26 2220)" fill="white" stroke="white" stroke-width="12"/>
<rect x="70" y="2489.49" width="115.016" height="12" rx="6" transform="rotate(135 70 2489.49)" fill="white"/>
<rect x="33.8135" y="2453.49" width="115.016" height="12" rx="6" transform="rotate(135 33.8135 2453.49)" fill="white"/>
<rect x="68" y="2277" width="218" height="12" rx="6" transform="rotate(90 68 2277)" fill="white"/>
<rect x="32" y="2205" width="254" height="12" rx="5.99999" transform="rotate(90 32 2205)" fill="white"/>
<rect x="97.4424" y="2256.04" width="50.2552" height="12" rx="6" transform="rotate(135 97.4424 2256.04)" fill="white"/>
<rect x="113.424" y="2315.5" width="72.8565" height="12" rx="6" transform="rotate(135 113.424 2315.5)" fill="white"/>
<circle cx="70.0005" cy="1263" r="9" fill="white" stroke="white" stroke-width="12"/>
<rect x="-45.6816" y="1700.09" width="162.766" height="12" rx="6" transform="rotate(-45 -45.6816 1700.09)" fill="white"/>
<rect x="64.0005" y="1599" width="351" height="12" rx="6.00001" transform="rotate(-90 64.0005 1599)" fill="white"/>
<circle r="9" transform="matrix(1 -8.74228e-08 -8.74228e-08 -1 62.6821 2097.58)" fill="white" stroke="white" stroke-width="12"/>
<rect width="162.766" height="12" rx="6" transform="matrix(0.707107 0.707107 0.707107 -0.707107 -53 1660.49)" fill="white"/>
<rect width="351" height="12" rx="6.00001" transform="matrix(4.37114e-08 1 1 -4.37114e-08 56.6821 1761.58)" fill="white"/>
<circle cx="1360" cy="1984" r="9" transform="rotate(-180 1360 1984)" fill="white" stroke="white" stroke-width="12"/>
<rect x="1492" y="1675.04" width="186.62" height="12" rx="6" transform="rotate(135 1492 1675.04)" fill="white"/>
<rect x="1366" y="1793" width="206" height="12" rx="6" transform="rotate(90 1366 1793)" fill="white"/>
<circle cx="1321" cy="1921" r="9" transform="rotate(-180 1321 1921)" fill="white" stroke="white" stroke-width="12"/>
<rect x="1467" y="1649.63" width="205.582" height="12" rx="6" transform="rotate(135 1467 1649.63)" fill="white"/>
<rect x="1327" y="1781" width="155" height="12" rx="6" transform="rotate(90 1327 1781)" fill="white"/>
<circle r="8" transform="matrix(-1 0 0 1 1321 1398)" fill="white" stroke="white" stroke-width="14"/>
<rect width="205.582" height="12" rx="6" transform="matrix(-0.707107 -0.707107 -0.707107 0.707107 1467 1669.69)" fill="white"/>
<rect width="155" height="12" rx="6" transform="matrix(4.37114e-08 -1 -1 -4.37114e-08 1327 1538)" fill="white"/>
<circle r="9" transform="matrix(-1 0 0 1 1360 1244)" fill="white" stroke="white" stroke-width="12"/>
<rect width="186.62" height="12" rx="6" transform="matrix(-0.707107 -0.707107 -0.707107 0.707107 1492 1639.51)" fill="white"/>
<rect width="293" height="12" rx="6.00001" transform="matrix(4.37114e-08 -1 -1 -4.37114e-08 1366 1522)" fill="white"/>
<circle r="9" transform="matrix(-1 0 0 1 1367 954)" fill="white" stroke="white" stroke-width="12"/>
<rect width="186.62" height="12" rx="6" transform="matrix(-0.707107 -0.707107 -0.707107 0.707107 1533 1618.51)" fill="white"/>
<rect width="520" height="12" rx="6.00001" transform="matrix(4.37114e-08 -1 -1 -4.37114e-08 1407 1501)" fill="white"/>
<rect width="67.6707" height="12" rx="6" transform="matrix(-0.707107 -0.707107 -0.707107 0.707107 1409.34 986.85)" fill="white"/>
<circle cx="1398" cy="2313" r="9" transform="rotate(180 1398 2313)" fill="white" stroke="white" stroke-width="12"/>
<circle cx="1341" cy="2153" r="9" transform="rotate(180 1341 2153)" fill="white" stroke="white" stroke-width="12"/>
<rect x="1530" y="1686.49" width="186.62" height="12" rx="6" transform="rotate(135 1530 1686.49)" fill="white"/>
<rect x="1404" y="1804" width="524" height="12.0001" rx="6.00006" transform="rotate(90 1404 1804)" fill="white"/>
<rect x="1405.75" y="2096.49" width="100.785" height="12" rx="6" transform="rotate(135 1405.75 2096.49)" fill="white"/>
</svg>
