<svg width="1440" height="774" viewBox="0 0 1440 774" fill="none" xmlns="http://www.w3.org/2000/svg">
<rect x="-70" y="323.96" width="186.62" height="12" rx="6" transform="rotate(-45 -70 323.96)" fill="white"/>
<rect x="55.9995" y="206" width="241" height="12" rx="6.00001" transform="rotate(-90 55.9995 206)" fill="white"/>
<circle cx="101" cy="78" r="9" fill="white" stroke="white" stroke-width="12"/>
<rect x="-45" y="349.368" width="205.582" height="12" rx="6" transform="rotate(-45 -45 349.368)" fill="white"/>
<rect x="95" y="218" width="155" height="12" rx="6" transform="rotate(-90 95 218)" fill="white"/>
<circle r="8" transform="matrix(1 -8.74228e-08 -8.74228e-08 -1 101 601)" fill="white" stroke="white" stroke-width="14"/>
<rect width="205.582" height="12" rx="6" transform="matrix(0.707107 0.707107 0.707107 -0.707107 -45 329.313)" fill="white"/>
<rect width="155" height="12" rx="6" transform="matrix(4.37114e-08 1 1 -4.37114e-08 95 461)" fill="white"/>
<circle r="9" transform="matrix(1 -8.74228e-08 -8.74228e-08 -1 62 665)" fill="white" stroke="white" stroke-width="12"/>
<rect width="186.62" height="12" rx="6" transform="matrix(0.707107 0.707107 0.707107 -0.707107 -70 359.485)" fill="white"/>
<rect width="203" height="12" rx="6" transform="matrix(4.37114e-08 1 1 -4.37114e-08 56 477)" fill="white"/>
<circle cx="1321" cy="641" r="9" transform="rotate(-180 1321 641)" fill="white" stroke="white" stroke-width="12"/>
<rect x="1399.59" y="444.485" width="110.457" height="12" rx="6" transform="rotate(135 1399.59 444.485)" fill="white"/>
<rect x="1391.11" y="373.59" width="110.457" height="12" rx="6" transform="rotate(-135 1391.11 373.59)" fill="white"/>
<path d="M1321 509C1324.31 509 1327 511.686 1327 515L1327 650C1327 653.314 1324.31 656 1321 656C1317.69 656 1315 653.314 1315 650L1315 515C1315 511.686 1317.69 509 1321 509Z" fill="white"/>
<rect x="1327" y="165" width="136" height="12" rx="6" transform="rotate(90 1327 165)" fill="white"/>
<rect x="1398" y="360" width="90" height="12" rx="6" transform="rotate(90 1398 360)" fill="white"/>
<circle cx="1369" cy="704" r="9" transform="rotate(-180 1369 704)" fill="white" stroke="white" stroke-width="12"/>
<rect x="1447.59" y="447.485" width="110.457" height="12" rx="6" transform="rotate(135 1447.59 447.485)" fill="white"/>
<rect x="1435.1" y="365.419" width="110.457" height="12" rx="6" transform="rotate(-135 1435.1 365.419)" fill="white"/>
<rect x="1375" y="511.999" width="207" height="12" rx="6" transform="rotate(90 1375 511.999)" fill="white"/>
<rect x="1371" y="165" width="128" height="12" rx="6" transform="rotate(90 1371 165)" fill="white"/>
<circle cx="1414" cy="759" r="9" transform="rotate(-180 1414 759)" fill="white" stroke="white" stroke-width="12"/>
<rect x="1492.59" y="451.485" width="110.457" height="12" rx="6" transform="rotate(135 1492.59 451.485)" fill="white"/>
<rect x="1479.1" y="357.419" width="110.457" height="12" rx="6" transform="rotate(-135 1479.1 357.419)" fill="white"/>
<rect x="1420" y="515.999" width="258" height="12" rx="5.99999" transform="rotate(90 1420 515.999)" fill="white"/>
<rect x="1414" y="165" width="119" height="12" rx="6" transform="rotate(90 1414 165)" fill="white"/>
<rect x="1276" y="-8" width="177" height="177" rx="10" stroke="white" stroke-width="12"/>
<rect x="1321" y="37" width="87" height="87" rx="10" stroke="white" stroke-width="12"/>
</svg>
