<svg width="1440" height="669" viewBox="0 0 1440 669" fill="none" xmlns="http://www.w3.org/2000/svg">
<circle cx="65.5" cy="29.5" r="15.5" fill="#007C89" stroke="#007C89" stroke-width="28"/>
<rect x="-66" y="323.96" width="186.62" height="28" rx="14" transform="rotate(-45 -66 323.96)" fill="#007C89"/>
<rect x="52" y="224.62" width="186.62" height="28" rx="14" transform="rotate(-90 52 224.62)" fill="#007C89"/>
<circle cx="115.908" cy="88.5" r="15.5" fill="#007C89" stroke="#007C89" stroke-width="28"/>
<rect x="-29" y="363.368" width="205.582" height="28" rx="14" transform="rotate(-45 -29 363.368)" fill="#007C89"/>
<rect x="102.408" y="251" width="160" height="28" rx="14" transform="rotate(-90 102.408 251)" fill="#007C89"/>
<circle cx="1375.91" cy="434.667" r="15.5" transform="rotate(-180 1375.91 434.667)" fill="#007C89" stroke="#007C89" stroke-width="28"/>
<rect x="1507.41" y="140.207" width="186.62" height="28" rx="14" transform="rotate(135 1507.41 140.207)" fill="#007C89"/>
<rect x="1389.41" y="239.548" width="186.62" height="28" rx="14" transform="rotate(90 1389.41 239.548)" fill="#007C89"/>
<circle cx="1325.5" cy="375.667" r="15.5" transform="rotate(-180 1325.5 375.667)" fill="#007C89" stroke="#007C89" stroke-width="28"/>
<rect x="1470.41" y="100.799" width="205.582" height="28" rx="14" transform="rotate(135 1470.41 100.799)" fill="#007C89"/>
<rect x="1339" y="213.167" width="160" height="28" rx="14" transform="rotate(90 1339 213.167)" fill="#007C89"/>
<circle r="15.5" transform="matrix(1 -8.74228e-08 -8.74228e-08 -1 115.908 639.667)" fill="#007C89" stroke="#007C89" stroke-width="28"/>
<rect width="205.582" height="28" rx="14" transform="matrix(0.707107 0.707107 0.707107 -0.707107 -29 364.799)" fill="#007C89"/>
<rect width="160" height="28" rx="14" transform="matrix(4.37114e-08 1 1 -4.37114e-08 102.408 477.167)" fill="#007C89"/>
</svg>
