<svg width="386" height="305" viewBox="0 0 386 305" fill="none" xmlns="http://www.w3.org/2000/svg">
<g clip-path="url(#clip0)">
<path opacity="0.18" d="M76.8902 44.5C103.89 40.58 131.69 43.28 158.46 37.9C186.46 32.27 211.96 18.1 238.95 8.68999C265.94 -0.720006 297.11 -4.95001 322.15 8.83999C337.48 17.29 348.76 31.6 357.61 46.74C375.054 76.5969 384.508 110.445 385.06 145.02C385.31 162.16 383.32 179.42 378.06 195.74C360.48 250.28 307.27 288.03 251.16 299.67C189.54 312.46 122.54 296.87 72.7802 258.36C30.4102 225.51 -11.4898 166.94 2.88018 113.59C12.4102 78.11 36.4102 50.38 76.8902 44.5Z" fill="#CCE5E7"/>
<path d="M288.69 190.56L257.95 213.31C257.296 213.793 256.477 213.997 255.672 213.877C254.868 213.757 254.144 213.323 253.66 212.67L240.91 195.44C240.67 195.119 240.499 194.751 240.41 194.36C240.26 193.772 240.289 193.153 240.492 192.582C240.695 192.01 241.063 191.512 241.55 191.15L272.3 168.4C272.663 168.133 273.081 167.949 273.523 167.86C273.966 167.772 274.422 167.782 274.86 167.89C275.55 168.066 276.16 168.471 276.59 169.04L289.34 186.28C289.578 186.604 289.751 186.971 289.847 187.361C289.944 187.752 289.962 188.157 289.902 188.555C289.841 188.952 289.703 189.334 289.495 189.678C289.287 190.022 289.014 190.322 288.69 190.56V190.56Z" fill="#007C89"/>
<path d="M274.86 167.89L269.17 193.45L240.41 194.36C240.26 193.772 240.289 193.153 240.492 192.582C240.695 192.01 241.063 191.512 241.55 191.15L272.3 168.4C272.663 168.133 273.081 167.949 273.523 167.86C273.966 167.772 274.422 167.782 274.86 167.89V167.89Z" fill="url(#paint0_linear)"/>
<path d="M258.85 193.78L259.79 211.94L288.69 190.56L271.2 184.31L269.17 193.45L258.85 193.78Z" fill="url(#paint1_linear)"/>
<path d="M294.41 45.12L260.07 94.05L253.47 75.74C230.678 81.7936 208.24 89.1082 186.26 97.65C160.92 107.74 136.52 120.28 129.51 133.24C113.44 163.01 151.19 176.17 151.19 176.17C144.008 176.744 136.785 176.57 129.64 175.65C110.81 173.18 87.4296 164.06 94.1996 133.24C99.5496 108.89 134.38 88.41 168.6 73.82H168.65C173.65 71.7 178.65 69.71 183.51 67.82L183.65 67.76C201.956 60.7603 220.627 54.7516 239.58 49.76L236.29 33.74L294.41 45.12Z" fill="#007C89"/>
<path d="M129.51 133.24C113.44 163.01 151.19 176.17 151.19 176.17C144.008 176.744 136.785 176.57 129.64 175.65C126.81 172.356 124.166 168.908 121.72 165.32C100.05 133.8 146.53 108.96 146.53 108.96C150.4 94.83 168.6 83.14 168.6 83.14V73.82H168.65L183.51 67.82L183.65 67.76L186.92 95.08L186.26 97.63C160.92 107.74 136.52 120.28 129.51 133.24Z" fill="url(#paint2_linear)"/>
<path d="M234.89 236.04C233.975 237.596 233.409 239.333 233.23 241.13C233.261 242.929 233.844 244.674 234.9 246.13C237.071 249.349 240.398 251.609 244.19 252.44C244.687 252.592 245.22 252.568 245.7 252.37C246.029 252.168 246.285 251.867 246.43 251.51C247.34 249.66 246.97 247.46 246.37 245.51C245.77 243.56 244.95 241.58 245.04 239.51C245.19 235.64 250.72 228.17 244.28 226.35C238.91 224.79 236.6 232.59 234.89 236.04Z" fill="#B2857F"/>
<path d="M231.11 241.09C231.11 241.09 229.21 242.65 229.57 244.37C229.93 246.09 236.76 258.08 246.49 256.71C256.22 255.34 240.24 245.71 240.24 245.71L231.11 241.09Z" fill="#007C89"/>
<path d="M234.05 236.66C234.448 236.675 234.828 236.832 235.12 237.104C235.412 237.376 235.597 237.743 235.64 238.14C235.894 239.282 236.434 240.341 237.211 241.216C237.988 242.091 238.976 242.753 240.08 243.14C242.62 243.83 244.94 241.71 246.08 242.31C247.22 242.91 250.42 251.26 249.58 253.64C248.74 256.02 244.8 255.96 241.3 254.33C237.8 252.7 231.42 246.19 230.93 243.62C230.44 241.05 232.66 237.35 234.05 236.66Z" fill="white"/>
<path d="M193.63 249.87C192.687 251.645 192.141 253.603 192.03 255.61C192.168 257.59 192.9 259.483 194.13 261.04C196.698 264.521 200.509 266.877 204.77 267.62C205.327 267.767 205.918 267.714 206.44 267.47C206.792 267.22 207.064 266.872 207.22 266.47C208.14 264.37 207.61 261.94 206.86 259.78C206.11 257.62 205.11 255.49 205.07 253.21C205.07 248.91 210.84 240.32 203.6 238.61C197.55 237.18 195.35 245.96 193.63 249.87Z" fill="#B2857F"/>
<path d="M189.66 255.74C189.66 255.74 187.66 257.57 188.11 259.46C188.56 261.35 196.74 274.36 207.5 272.36C218.26 270.36 200.04 260.51 200.04 260.51L189.66 255.74Z" fill="#007C89"/>
<path d="M192.71 250.62C193.157 250.615 193.591 250.773 193.931 251.063C194.271 251.354 194.494 251.758 194.56 252.2C194.894 253.454 195.545 254.601 196.45 255.531C197.356 256.461 198.485 257.142 199.73 257.51C202.59 258.15 205.08 255.7 206.34 256.3C207.6 256.9 211.6 266.05 210.76 268.72C209.92 271.39 205.55 271.53 201.58 269.89C197.61 268.25 190.2 261.31 189.58 258.48C188.96 255.65 191.2 251.46 192.71 250.62Z" fill="white"/>
<path d="M215.2 145.58C215.472 145.627 215.739 145.698 216 145.79C222.32 148.19 229.93 158.89 234.23 163.97C239.819 170.404 244.472 177.595 248.05 185.33C255.31 201.54 255.98 221.68 245.78 236.22L237.94 234.58C237.255 234.504 236.61 234.222 236.09 233.77C235.822 233.378 235.637 232.935 235.546 232.469C235.455 232.004 235.459 231.524 235.56 231.06C235.974 225.459 235.715 219.829 234.79 214.29C234.272 210.494 233.109 206.814 231.35 203.41C228.89 198.98 225.01 195.55 221.23 192.19C209.23 181.56 198.47 170.57 192.52 155.54C197.89 152.9 209.41 144.56 215.2 145.58Z" fill="#473F47"/>
<path d="M197.04 153.74C197.298 153.843 197.544 153.977 197.77 154.14C203.36 157.94 208.27 170.14 211.27 176.06C215.199 183.625 218.047 191.704 219.73 200.06C223 217.51 218.97 237.25 205.66 249.06L198.41 245.63C197.764 245.396 197.204 244.975 196.8 244.42C196.632 243.974 196.556 243.499 196.576 243.023C196.597 242.547 196.714 242.08 196.92 241.65C198.63 236.3 199.691 230.763 200.08 225.16C200.463 221.348 200.189 217.499 199.27 213.78C197.92 208.91 194.94 204.67 192.05 200.51C182.9 187.39 174.96 174.18 172.68 158.18C178.51 156.86 191.66 151.44 197.04 153.74Z" fill="#473F47"/>
<path d="M229.61 115.65C229.615 115.693 229.615 115.737 229.61 115.78C229.7 117.45 230.25 118.92 229.82 120.62C229.36 122.51 227.6 124.22 225.68 123.94C224.08 123.71 222.99 122.27 221.76 121.22C220.472 120.189 219.045 119.347 217.52 118.72C215.52 117.79 213.46 116.92 211.4 116.12C210.08 115.6 207.56 115.28 207 113.93C206.44 112.58 206.62 110.45 206.46 109.02L203.97 86.33L227.14 105.33C228.09 107.408 228.83 109.575 229.35 111.8C229.571 113.071 229.658 114.361 229.61 115.65V115.65Z" fill="white"/>
<path d="M212.41 118.15C212.55 119.49 212.86 120.82 213.02 122.15C213.86 129.54 212.95 137.37 215.95 144.38C216.63 145.94 217.51 147.6 217.11 149.26C216.622 150.667 215.637 151.847 214.34 152.58C208.22 156.86 200.79 158.77 193.55 160.58C188.1 161.96 180.43 164.47 174.99 162.05C172.67 161.05 171.67 158.73 170.72 156.45C167.72 149.19 166.14 141.19 164.72 133.45C164.54 132.45 164.35 131.45 164.18 130.4C163 123.42 162.077 116.38 161.41 109.28C160.95 104.12 160.74 98.52 163.68 94.28C167.58 88.62 175.84 84.28 182.27 82.28C184.35 81.6106 186.516 81.2501 188.7 81.21C191.812 81.3554 194.876 82.0318 197.76 83.21C201.19 84.46 204.24 85.5 206.19 88.54C208.352 92.0715 210.008 95.8886 211.11 99.88C212.148 103.618 212.663 107.481 212.64 111.36C212.64 113.26 212.38 115.18 212.39 117.07C212.359 117.43 212.366 117.792 212.41 118.15V118.15Z" fill="white"/>
<path opacity="0.1" d="M186.81 163.35C184.73 164.22 179.57 162.79 177.9 162.68C176.9 162.62 175.9 162.22 174.9 162.1C169.9 161.41 167.77 147.71 166.9 144.1C164.56 134.45 161.5 124.53 160.28 114.73C159.82 110.94 159.49 107.07 160.34 103.36C161.19 99.65 163.34 96.07 166.79 94.36C172.79 91.42 176.84 111.01 178.15 115.01C179.79 120.01 181.44 125.01 183.07 130.01C183.79 132.25 184.02 134.74 185.25 136.79C187.12 139.9 188.7 139.31 191.83 138.79C198.4 137.65 204.54 134.86 211.01 133.3C211.276 133.201 211.559 133.156 211.843 133.17C212.127 133.184 212.405 133.255 212.66 133.38C213.008 133.667 213.245 134.067 213.33 134.51C213.711 135.773 213.919 137.081 213.95 138.4C213.988 138.778 213.933 139.159 213.79 139.51C213.564 139.869 213.251 140.165 212.88 140.37C208.507 143.263 203.704 145.446 198.65 146.84C194.65 147.96 190.86 149.84 188.16 153.18C185.73 156.18 188.89 159.34 187.57 162.59C187.501 162.761 187.398 162.917 187.267 163.048C187.137 163.178 186.981 163.281 186.81 163.35V163.35Z" fill="#020202"/>
<path d="M182.25 148.24L220.59 135.31L248.71 151.35L209.58 167.39L182.25 148.24Z" fill="#007C89"/>
<path d="M182.25 148.24L220.59 135.31L248.71 151.35L209.58 167.39L182.25 148.24Z" fill="url(#paint3_linear)"/>
<path d="M183.83 146.17L222.17 133.24L250.29 149.28L211.16 165.32L183.83 146.17Z" fill="#007C89"/>
<path d="M213.04 163.11L244.76 149.1L229.28 140.6L197.74 152.54L213.04 163.11Z" fill="url(#paint4_linear)"/>
<path d="M211.16 165.32H248.97L281.52 145.05L250.29 149.28L211.16 165.32Z" fill="#007C89"/>
<path d="M198.26 72.41C197.87 73.82 197.45 75.23 197 76.63C196 79.83 194 82.75 190.52 83.52C189.751 83.668 188.972 83.7616 188.19 83.8C188.04 83.8 187.87 83.8 187.67 83.8C187.659 83.8053 187.647 83.8081 187.635 83.8081C187.623 83.8081 187.611 83.8053 187.6 83.8H187.51C187.12 83.7816 186.729 83.8221 186.35 83.92C186.244 83.9255 186.141 83.9563 186.05 84.01C185.05 84.47 185.13 86.09 185.2 87.01C185.446 88.0451 185.326 89.1335 184.86 90.09C184.86 90.09 184.86 90.15 184.8 90.19C184.523 90.4924 184.188 90.7365 183.816 90.9082C183.443 91.0799 183.04 91.1757 182.63 91.19C180.906 91.3293 179.193 90.8073 177.84 89.73C177.066 89.0109 176.443 88.1438 176.01 87.18C175.874 86.9061 175.761 86.6218 175.67 86.33C175.557 85.8352 175.513 85.3269 175.54 84.82C175.558 84.0424 175.632 83.2671 175.76 82.5C176.129 80.986 176.419 79.4539 176.63 77.91C176.643 77.1278 176.697 76.3467 176.79 75.57C176.918 75.0737 177.012 74.5692 177.07 74.06C177.07 72.59 176.32 71.17 176.31 69.68C176.297 68.2065 176.434 66.7355 176.72 65.29C177.254 62.4227 178.502 59.7364 180.35 57.48C183.78 53.48 189.86 51.48 194.64 53.76C197.029 54.8997 198.882 56.9215 199.81 59.4C201.41 63.61 199.41 68.3 198.26 72.41Z" fill="#B2857F"/>
<path d="M193.28 144.6C194.12 144.5 194.97 144.41 195.81 144.34C196.311 144.27 196.821 144.3 197.31 144.43C197.55 144.493 197.769 144.619 197.945 144.794C198.121 144.97 198.247 145.19 198.31 145.43C198.304 145.613 198.342 145.794 198.42 145.96C198.548 146.108 198.725 146.204 198.92 146.23C201.92 147.01 205.02 148.23 206.81 150.7C207.023 150.934 207.172 151.219 207.242 151.527C207.312 151.836 207.301 152.157 207.21 152.46C206.8 153.3 205.6 153.18 204.7 152.93C204.829 153.115 204.898 153.335 204.898 153.56C204.898 153.785 204.829 154.005 204.7 154.19C204.565 154.371 204.388 154.517 204.184 154.615C203.98 154.712 203.755 154.759 203.53 154.75C203.232 154.695 202.927 154.695 202.63 154.75C202.426 154.845 202.237 154.97 202.07 155.12C201.648 155.398 201.175 155.588 200.678 155.677C200.181 155.767 199.671 155.754 199.18 155.64C198.18 155.49 197.18 155.15 196.18 155.07C194.63 154.95 193.24 155.46 191.8 154.83C190.212 154.044 188.532 153.46 186.8 153.09C186.248 153.001 185.74 152.739 185.35 152.34C185.181 152.001 185.094 151.628 185.094 151.25C185.094 150.872 185.181 150.499 185.35 150.16C185.608 148.933 186.075 147.76 186.73 146.69C187.58 145.49 189 145.28 190.39 145.04C191.41 144.87 192.32 144.74 193.28 144.6Z" fill="#B2857F"/>
<path d="M163.66 94.27C156.31 106.44 149.05 120.54 146.96 134.72C146.41 138.45 146.11 142.85 147.86 146.35C150.72 152.05 160.45 153.16 166.05 153.73C172.756 154.41 179.508 154.5 186.23 154C186.377 154.028 186.529 154.019 186.671 153.974C186.814 153.929 186.944 153.85 187.049 153.743C187.153 153.636 187.23 153.505 187.272 153.362C187.314 153.218 187.321 153.066 187.29 152.92L187.57 146.45C187.616 146.148 187.575 145.839 187.45 145.56C187.275 145.356 187.054 145.197 186.805 145.094C186.557 144.992 186.288 144.949 186.02 144.97C182.103 144.656 178.255 143.763 174.6 142.32C171.13 140.94 164.35 137.32 164.84 132.76C165.11 130.2 167.92 127.08 169.31 125.06C172.65 120.21 176.25 115.51 179.93 110.91C179.93 110.91 180.29 84.74 163.66 94.27Z" fill="white"/>
<path d="M197.11 66.53C197.607 66.4149 198.075 66.1959 198.481 65.8874C198.888 65.5789 199.225 65.1879 199.47 64.74C199.88 65.89 201.82 65.54 202.31 64.41C202.8 63.28 202.31 62 201.87 60.87C202.329 60.7618 202.755 60.5409 203.107 60.2272C203.46 59.9135 203.728 59.5169 203.889 59.0732C204.05 58.6296 204.098 58.1528 204.028 57.6861C203.958 57.2193 203.773 56.7773 203.49 56.4C203.16 56.03 202.7 55.71 202.61 55.21C202.589 54.8289 202.646 54.4476 202.78 54.09C202.842 53.5029 202.749 52.9098 202.508 52.3707C202.267 51.8316 201.889 51.3656 201.41 51.02C200.427 50.3419 199.329 49.8473 198.17 49.56C198.481 49.0539 198.597 48.4516 198.496 47.8661C198.395 47.2806 198.083 46.7522 197.62 46.38C196.672 45.656 195.522 45.2437 194.33 45.2C192.6 45.01 190.69 45.09 189.33 46.2C188.401 45.6236 187.307 45.3736 186.22 45.4896C185.133 45.6055 184.116 46.0807 183.33 46.84C183.051 47.2273 182.66 47.5203 182.21 47.68C181.888 47.7032 181.566 47.6483 181.27 47.52C180.009 46.9808 178.614 46.8378 177.27 47.11C176.598 47.2702 176.011 47.6764 175.624 48.2484C175.237 48.8205 175.079 49.5168 175.18 50.2C174.683 50.2596 174.217 50.4698 173.843 50.8023C173.47 51.1348 173.207 51.5737 173.09 52.06C173.067 52.365 172.971 52.66 172.81 52.92C172.52 53.26 172.01 53.24 171.58 53.28C170.76 53.3514 169.997 53.7297 169.443 54.3391C168.89 54.9486 168.586 55.7445 168.594 56.5678C168.601 57.391 168.919 58.1812 169.484 58.7804C170.049 59.3795 170.819 59.7437 171.64 59.8C171.545 60.2018 171.535 60.6188 171.609 61.0248C171.683 61.4309 171.84 61.8174 172.07 62.16C172.6 63.01 173.31 63.07 174.01 63.6C174.42 63.92 174.26 63.95 174.24 64.6C174.22 65.1981 174.25 65.7969 174.33 66.39C174.466 67.5324 174.752 68.652 175.18 69.72C175.48 70.49 175.86 71.23 176.13 72.01C176.502 73.2047 176.75 74.4345 176.87 75.68L178.56 70.9C178.579 70.8347 178.579 70.7653 178.56 70.7C178.526 70.6113 178.463 70.537 178.38 70.49C177.643 69.9157 177.124 69.107 176.91 68.1977C176.695 67.2884 176.798 66.3331 177.2 65.49C177.312 65.2256 177.491 64.9946 177.719 64.8194C177.946 64.6442 178.216 64.5308 178.5 64.49C179.18 64.49 179.7 65.08 180.03 65.67C180.381 66.2985 180.647 66.9711 180.82 67.67C181.278 66.5757 181.909 65.5626 182.69 64.67C183.02 64.3 183.42 63.67 183.95 63.86C184.48 64.05 184.73 65.01 184.95 65.36C185.738 65.0535 186.456 64.5909 187.06 64C186.99 64.694 187.121 65.3934 187.436 66.0154C187.752 66.6375 188.239 67.1561 188.84 67.51C190.1 68.1 191.93 67.26 191.93 65.86C191.93 66.49 194.66 65.43 194.86 65.31C195.071 65.7143 195.398 66.0463 195.799 66.2637C196.199 66.481 196.656 66.5738 197.11 66.53Z" fill="#473F47"/>
<path d="M183.92 83.85C184.726 83.9557 185.539 83.9891 186.35 83.95C186.244 83.9555 186.141 83.9864 186.05 84.04C185.05 84.5 185.13 86.12 185.2 87.04C185.446 88.0751 185.326 89.1635 184.86 90.12C184.549 90.1224 184.239 90.0786 183.94 89.99C183.634 89.882 183.352 89.7156 183.11 89.5C182.203 88.7534 181.54 87.7531 181.205 86.6271C180.87 85.5012 180.879 84.3009 181.23 83.18C182.096 83.5131 182.999 83.7381 183.92 83.85V83.85Z" fill="#96625E"/>
<path d="M223.55 102.4C223.55 102.4 241.86 115.91 239.33 129.4C236.98 141.95 234.87 151.93 234.87 151.93L226.3 146.93C226.3 146.93 232.03 128.02 220.07 119.8C208.11 111.58 223.55 102.4 223.55 102.4Z" fill="white"/>
<path d="M224.78 146.74L223.96 150.99C223.816 151.528 223.795 152.093 223.9 152.64C223.955 152.913 224.101 153.16 224.313 153.341C224.525 153.523 224.791 153.628 225.07 153.64C225.67 153.64 226.18 152.98 226.78 153.1C226.994 153.164 227.197 153.262 227.38 153.39C228.66 154.09 230.21 153.39 231.56 152.76C231.775 152.639 232.025 152.593 232.27 152.63C232.56 152.71 232.74 153 232.99 153.18C233.24 153.33 233.529 153.401 233.82 153.383C234.111 153.366 234.39 153.26 234.62 153.08C235.073 152.703 235.418 152.213 235.62 151.66C236.158 150.477 236.392 149.179 236.299 147.883C236.207 146.586 235.791 145.334 235.09 144.24C234.323 143.291 233.315 142.566 232.171 142.14C231.028 141.715 229.791 141.604 228.59 141.82C225.99 142.23 225.25 144.27 224.78 146.74Z" fill="#B2857F"/>
<path d="M209.58 167.39H247.39L279.94 147.12L248.71 151.35L209.58 167.39Z" fill="#007C89"/>
<path d="M211.16 165.32L209.58 167.39H247.39L248.97 165.32H211.16Z" fill="url(#paint5_linear)"/>
<path d="M281.52 145.05L279.94 147.12L247.39 167.39L248.97 165.32L281.52 145.05Z" fill="#007C89"/>
<path d="M281.52 145.05L279.94 147.12L247.39 167.39L248.97 165.32L281.52 145.05Z" fill="url(#paint6_linear)"/>
<path d="M250.67 150.18L276.53 146.57L249.56 163.11L220.13 163.62L250.67 150.18Z" fill="white"/>
<path d="M206.61 147.94L221.25 142.51L214.19 137.35L199.17 142.51L206.61 147.94Z" fill="url(#paint7_linear)"/>
<path d="M175.28 203.91L117.19 230.43C115.953 230.993 114.544 231.043 113.272 230.569C111.999 230.095 110.966 229.135 110.4 227.9L95.5396 195.34C95.2553 194.736 95.102 194.078 95.0896 193.41C95.051 192.395 95.3158 191.391 95.8501 190.528C96.3845 189.664 97.1642 188.979 98.0896 188.56L156.18 162.04C156.868 161.73 157.616 161.575 158.371 161.586C159.126 161.596 159.87 161.772 160.55 162.1C161.619 162.616 162.475 163.49 162.97 164.57L177.81 197.14C178.088 197.751 178.244 198.41 178.267 199.081C178.291 199.752 178.182 200.42 177.947 201.049C177.712 201.678 177.356 202.254 176.898 202.745C176.44 203.236 175.89 203.632 175.28 203.91V203.91Z" fill="#007C89"/>
<path d="M175.28 203.91L117.19 230.43C115.953 230.993 114.544 231.043 113.272 230.569C111.999 230.095 110.966 229.135 110.4 227.9L95.5396 195.34C95.2553 194.736 95.102 194.078 95.0896 193.41C95.051 192.395 95.3158 191.391 95.8501 190.528C96.3845 189.664 97.1642 188.979 98.0896 188.56L156.18 162.04C156.868 161.73 157.616 161.575 158.371 161.586C159.126 161.596 159.87 161.772 160.55 162.1C161.619 162.616 162.475 163.49 162.97 164.57L177.81 197.14C178.088 197.751 178.244 198.41 178.267 199.081C178.291 199.752 178.182 200.42 177.947 201.049C177.712 201.678 177.356 202.254 176.898 202.745C176.44 203.236 175.89 203.632 175.28 203.91V203.91Z" fill="url(#paint8_linear)"/>
<path d="M177.97 202.74L119.88 229.26C118.644 229.823 117.235 229.873 115.962 229.399C114.689 228.925 113.656 227.965 113.09 226.73L98.2299 194.18C97.9492 193.574 97.7928 192.918 97.7699 192.25C97.7333 191.234 97.9988 190.23 98.5328 189.365C99.0668 188.5 99.8453 187.813 100.77 187.39L158.86 160.88C160.095 160.319 161.502 160.269 162.774 160.741C164.046 161.213 165.08 162.169 165.65 163.4L180.51 195.97C180.788 196.581 180.943 197.241 180.966 197.912C180.989 198.584 180.879 199.253 180.643 199.881C180.407 200.51 180.05 201.086 179.591 201.577C179.132 202.067 178.581 202.463 177.97 202.74V202.74Z" fill="#007C89"/>
<path d="M163.21 160.88L145.07 200.66L97.7699 192.2C97.7333 191.184 97.9988 190.18 98.5328 189.315C99.0668 188.45 99.8453 187.763 100.77 187.34L158.86 160.83C159.544 160.518 160.289 160.36 161.041 160.369C161.792 160.378 162.533 160.552 163.21 160.88Z" fill="url(#paint9_linear)"/>
<path d="M128.11 197.62L123.36 227.61L177.97 202.69L151.56 186.43L145.07 200.66L128.11 197.62Z" fill="url(#paint10_linear)"/>
<path d="M302.34 139.4L264.82 131.99C264.426 131.912 264.05 131.757 263.715 131.534C263.38 131.311 263.093 131.024 262.869 130.69C262.645 130.356 262.489 129.98 262.411 129.586C262.332 129.191 262.332 128.785 262.41 128.39L266.56 107.39C266.633 106.996 266.786 106.622 267.01 106.29C267.345 105.782 267.823 105.385 268.384 105.15C268.945 104.915 269.564 104.852 270.16 104.97L307.68 112.38C308.125 112.463 308.544 112.646 308.908 112.915C309.272 113.183 309.57 113.53 309.78 113.93C310.119 114.557 310.232 115.28 310.1 115.98L305.94 136.98C305.864 137.376 305.71 137.752 305.487 138.088C305.265 138.424 304.978 138.713 304.643 138.938C304.309 139.163 303.933 139.32 303.538 139.399C303.143 139.478 302.736 139.478 302.34 139.4Z" fill="#007C89"/>
<path d="M309.78 113.91L287.06 126.91L267.06 106.27C267.394 105.762 267.872 105.365 268.433 105.13C268.994 104.895 269.613 104.832 270.21 104.95L307.73 112.36C308.165 112.45 308.574 112.636 308.929 112.904C309.283 113.172 309.574 113.516 309.78 113.91Z" fill="url(#paint11_linear)"/>
<path d="M279.87 119.5L267.08 132.43L302.34 139.4L295.18 122.26L287.06 126.91L279.87 119.5Z" fill="url(#paint12_linear)"/>
</g>
<defs>
<linearGradient id="paint0_linear" x1="245.551" y1="152.245" x2="271.961" y2="215.322" gradientUnits="userSpaceOnUse">
<stop offset="0.01" stop-color="white"/>
<stop offset="1" stop-color="white" stop-opacity="0"/>
</linearGradient>
<linearGradient id="paint1_linear" x1="226.369" y1="171.048" x2="351.249" y2="249.72" gradientUnits="userSpaceOnUse">
<stop offset="0.01"/>
<stop offset="0.08" stop-opacity="0.69"/>
<stop offset="0.21" stop-opacity="0.32"/>
<stop offset="1" stop-opacity="0"/>
</linearGradient>
<linearGradient id="paint2_linear" x1="20460.2" y1="23750.4" x2="-4596.84" y2="12574.1" gradientUnits="userSpaceOnUse">
<stop offset="0.01"/>
<stop offset="0.08" stop-opacity="0.69"/>
<stop offset="0.21" stop-opacity="0.32"/>
<stop offset="1" stop-opacity="0"/>
</linearGradient>
<linearGradient id="paint3_linear" x1="14729.7" y1="4375" x2="14340" y2="8545.16" gradientUnits="userSpaceOnUse">
<stop offset="0.01"/>
<stop offset="0.08" stop-opacity="0.69"/>
<stop offset="0.21" stop-opacity="0.32"/>
<stop offset="1" stop-opacity="0"/>
</linearGradient>
<linearGradient id="paint4_linear" x1="9740.45" y1="3203.54" x2="11501.2" y2="6168.24" gradientUnits="userSpaceOnUse">
<stop offset="0.01"/>
<stop offset="0.08" stop-opacity="0.69"/>
<stop offset="0.21" stop-opacity="0.32"/>
<stop offset="1" stop-opacity="0"/>
</linearGradient>
<linearGradient id="paint5_linear" x1="8069.07" y1="546.778" x2="8135.12" y2="-210.39" gradientUnits="userSpaceOnUse">
<stop offset="0.01"/>
<stop offset="0.08" stop-opacity="0.69"/>
<stop offset="0.21" stop-opacity="0.32"/>
<stop offset="1" stop-opacity="0"/>
</linearGradient>
<linearGradient id="paint6_linear" x1="8931.42" y1="3333.41" x2="9972.37" y2="5476.72" gradientUnits="userSpaceOnUse">
<stop offset="0.01"/>
<stop offset="0.08" stop-opacity="0.69"/>
<stop offset="0.21" stop-opacity="0.32"/>
<stop offset="1" stop-opacity="0"/>
</linearGradient>
<linearGradient id="paint7_linear" x1="4741.47" y1="1577.91" x2="4880.01" y2="1994.17" gradientUnits="userSpaceOnUse">
<stop offset="0.01"/>
<stop offset="0.08" stop-opacity="0.69"/>
<stop offset="0.21" stop-opacity="0.32"/>
<stop offset="1" stop-opacity="0"/>
</linearGradient>
<linearGradient id="paint8_linear" x1="13881.2" y1="14844.2" x2="5158.19" y2="21824.3" gradientUnits="userSpaceOnUse">
<stop offset="0.01"/>
<stop offset="0.08" stop-opacity="0.69"/>
<stop offset="0.21" stop-opacity="0.32"/>
<stop offset="1" stop-opacity="0"/>
</linearGradient>
<linearGradient id="paint9_linear" x1="24876.6" y1="3364.44" x2="25631.9" y2="7907.01" gradientUnits="userSpaceOnUse">
<stop offset="0.01" stop-color="white"/>
<stop offset="1" stop-color="white" stop-opacity="0"/>
</linearGradient>
<linearGradient id="paint10_linear" x1="18795.4" y1="5084.45" x2="25685.3" y2="13812.9" gradientUnits="userSpaceOnUse">
<stop offset="0.01"/>
<stop offset="0.08" stop-opacity="0.69"/>
<stop offset="0.21" stop-opacity="0.32"/>
<stop offset="1" stop-opacity="0"/>
</linearGradient>
<linearGradient id="paint11_linear" x1="-22546.3" y1="-4129.22" x2="-23221.4" y2="-2781.44" gradientUnits="userSpaceOnUse">
<stop offset="0.01" stop-color="white"/>
<stop offset="1" stop-color="white" stop-opacity="0"/>
</linearGradient>
<linearGradient id="paint12_linear" x1="-19564.3" y1="-3072.72" x2="-19814.6" y2="341.604" gradientUnits="userSpaceOnUse">
<stop offset="0.01"/>
<stop offset="0.08" stop-opacity="0.69"/>
<stop offset="0.21" stop-opacity="0.32"/>
<stop offset="1" stop-opacity="0"/>
</linearGradient>
<clipPath id="clip0">
<rect width="385.08" height="304.02" fill="white"/>
</clipPath>
</defs>
</svg>
