<svg width="774" height="580" viewBox="0 0 774 580" fill="none" xmlns="http://www.w3.org/2000/svg">
<g clip-path="url(#clip0)">
<path d="M65.5303 558.41C60.1703 560.41 54.2503 566.88 58.5303 570.67C60.0303 572.01 62.2303 572.15 64.2403 572.23C268.814 579.79 473.48 581.6 678.24 577.66C683.94 577.54 690.73 576.8 693.39 571.76C696.05 566.72 692.39 560.02 687.13 557.52C681.87 555.02 675.82 555.43 670.03 555.78C645.006 557.292 619.895 556.442 595.03 553.24C587.12 552.24 579.03 550.91 571.97 547.3C567.11 544.82 562.81 541.3 557.89 538.97C549.8 535.07 540.57 534.46 531.61 533.97C465.017 530.27 398.35 529.247 331.61 530.9C298.277 531.733 264.967 533.233 231.68 535.4C218.58 536.25 203.35 535.22 190.99 539.95C178.63 544.68 168.93 549.95 155.54 551.48C125.73 554.89 94.4203 547.86 65.5303 558.41Z" fill="url(#paint0_linear)"/>
<path d="M194.71 551.96C194.619 553.347 194.917 554.733 195.57 555.96C196.529 557.306 197.807 558.392 199.29 559.12C208.848 564.398 218.766 568.996 228.97 572.88C231.4 573.74 233.97 574.74 236.56 574.45C239.15 574.16 241.72 572.3 242.01 569.72C242.3 567.57 240.86 565.57 239.57 563.85C232.69 554.67 225.57 545.5 218.21 536.61C217.759 536.019 217.231 535.491 216.64 535.04C215.83 534.649 214.956 534.405 214.06 534.32C209.18 533.6 200.44 530.45 196.43 534.89C192.84 538.77 194.56 547.14 194.71 551.96Z" fill="#CCE5E7"/>
<path d="M194.71 551.96C194.619 553.347 194.917 554.733 195.57 555.96C196.529 557.306 197.807 558.392 199.29 559.12C208.848 564.398 218.766 568.996 228.97 572.88C231.4 573.74 233.97 574.74 236.56 574.45C239.15 574.16 241.72 572.3 242.01 569.72C242.3 567.57 240.86 565.57 239.57 563.85C232.69 554.67 225.57 545.5 218.21 536.61C217.759 536.019 217.231 535.491 216.64 535.04C215.83 534.649 214.956 534.405 214.06 534.32C209.18 533.6 200.44 530.45 196.43 534.89C192.84 538.77 194.56 547.14 194.71 551.96Z" fill="url(#paint1_linear)"/>
<path opacity="0.18" d="M232.93 9.56001C260.6 -2.33999 292.13 4.40001 322.23 4.68001C364.38 4.97001 408.23 -7.64999 447.51 7.41001C470.88 16.29 489.66 34.21 507.72 51.55C534.81 77.64 562.47 104.45 579.53 137.99C586.53 151.89 591.86 166.99 602.04 178.7C620.96 200.2 651.78 204.93 678.29 215.82C727.17 236.04 764.73 282.34 772.18 334.66C779.63 386.98 755.84 443.02 711.84 472.14C673.28 497.66 624.97 501.67 578.84 504.97L308.76 524.3C248.13 528.6 186.06 532.9 127.76 515.55C76.2601 500.36 25.8401 464.38 7.31009 412.2C-14.6199 350.85 17.2001 289.5 44.5801 235.32C61.7801 201.32 82.4201 171.53 106.79 142.32C141.48 101.01 182.47 31.2 232.93 9.56001Z" fill="#CCE5E7"/>
<path d="M630.84 225.63C636.62 226.58 654.66 228.63 656.67 223.21C657.67 220.66 654 208.76 653.98 205.99C653.98 199.81 648.82 197.52 646.55 191.79C646.409 191.314 646.131 190.889 645.75 190.57C645.344 190.403 644.9 190.349 644.466 190.412C644.031 190.475 643.622 190.654 643.28 190.93C637.78 194.18 625.54 196.16 623.58 202.49C631.64 205.99 628.32 220.46 630.84 225.63Z" fill="url(#paint2_linear)"/>
<path d="M554.59 540.21C544.292 541.808 533.816 541.902 523.49 540.49C526.07 534.19 528.65 527.59 528.36 520.71C528.22 515.84 526.5 511.11 525.06 506.38C520.026 490.391 517.088 473.816 516.32 457.07C516.17 452.77 516.17 448.18 518.75 444.74C520.48 442.45 523.2 441.16 525.92 440.16C548 432.16 548.57 456.64 550.15 471.4C552.73 494.34 554.16 517.27 554.59 540.21Z" fill="url(#paint3_linear)"/>
<path d="M137.03 468.68C138.104 468.679 139.167 468.889 140.159 469.299C141.152 469.709 142.054 470.311 142.813 471.069C143.573 471.828 144.176 472.729 144.587 473.721C144.998 474.713 145.21 475.776 145.21 476.85V548.67H128.84V476.85C128.84 475.775 129.052 474.711 129.464 473.719C129.875 472.726 130.479 471.825 131.24 471.066C132.001 470.307 132.904 469.706 133.897 469.296C134.891 468.887 135.955 468.677 137.03 468.68V468.68Z" fill="#007C89"/>
<path d="M172.3 539.92H104.35C101.423 539.92 99.0498 542.293 99.0498 545.22V545.23C99.0498 548.157 101.423 550.53 104.35 550.53H172.3C175.227 550.53 177.6 548.157 177.6 545.23V545.22C177.6 542.293 175.227 539.92 172.3 539.92Z" fill="#007C89"/>
<path d="M137.03 468.68C141.55 468.68 145.21 471.94 145.21 475.97V540.03H128.84V475.97C128.84 471.94 132.52 468.68 137.03 468.68Z" fill="url(#paint4_linear)"/>
<path d="M172.3 539.92H104.35C101.423 539.92 99.0498 542.293 99.0498 545.22V545.23C99.0498 548.157 101.423 550.53 104.35 550.53H172.3C175.227 550.53 177.6 548.157 177.6 545.23V545.22C177.6 542.293 175.227 539.92 172.3 539.92Z" fill="url(#paint5_linear)"/>
<path d="M101.63 565.86C105.744 565.86 109.08 562.524 109.08 558.41C109.08 554.295 105.744 550.96 101.63 550.96C97.5152 550.96 94.1797 554.295 94.1797 558.41C94.1797 562.524 97.5152 565.86 101.63 565.86Z" fill="#007C89"/>
<path d="M137.61 565.86C141.725 565.86 145.06 562.524 145.06 558.41C145.06 554.295 141.725 550.96 137.61 550.96C133.496 550.96 130.16 554.295 130.16 558.41C130.16 562.524 133.496 565.86 137.61 565.86Z" fill="#007C89"/>
<path d="M173.59 565.86C177.704 565.86 181.04 562.524 181.04 558.41C181.04 554.295 177.704 550.96 173.59 550.96C169.475 550.96 166.14 554.295 166.14 558.41C166.14 562.524 169.475 565.86 173.59 565.86Z" fill="#007C89"/>
<path d="M101.63 565.86C105.744 565.86 109.08 562.524 109.08 558.41C109.08 554.295 105.744 550.96 101.63 550.96C97.5152 550.96 94.1797 554.295 94.1797 558.41C94.1797 562.524 97.5152 565.86 101.63 565.86Z" fill="url(#paint6_linear)"/>
<path d="M101.58 562.5C103.773 562.5 105.55 560.723 105.55 558.53C105.55 556.337 103.773 554.56 101.58 554.56C99.3878 554.56 97.6104 556.337 97.6104 558.53C97.6104 560.723 99.3878 562.5 101.58 562.5Z" fill="url(#paint7_linear)"/>
<path d="M137.61 565.86C141.725 565.86 145.06 562.524 145.06 558.41C145.06 554.295 141.725 550.96 137.61 550.96C133.496 550.96 130.16 554.295 130.16 558.41C130.16 562.524 133.496 565.86 137.61 565.86Z" fill="url(#paint8_linear)"/>
<path d="M137.52 562.13C139.696 562.13 141.46 560.366 141.46 558.19C141.46 556.014 139.696 554.25 137.52 554.25C135.344 554.25 133.58 556.014 133.58 558.19C133.58 560.366 135.344 562.13 137.52 562.13Z" fill="url(#paint9_linear)"/>
<path d="M173.59 565.86C177.704 565.86 181.04 562.524 181.04 558.41C181.04 554.295 177.704 550.96 173.59 550.96C169.475 550.96 166.14 554.295 166.14 558.41C166.14 562.524 169.475 565.86 173.59 565.86Z" fill="url(#paint10_linear)"/>
<path d="M173.52 562.47C175.796 562.47 177.64 560.625 177.64 558.35C177.64 556.075 175.796 554.23 173.52 554.23C171.245 554.23 169.4 556.075 169.4 558.35C169.4 560.625 171.245 562.47 173.52 562.47Z" fill="url(#paint11_linear)"/>
<path d="M621.351 468.68C623.517 468.68 625.596 469.541 627.128 471.073C628.66 472.605 629.521 474.683 629.521 476.85V548.67H613.181V476.85C613.181 474.683 614.041 472.605 615.574 471.073C617.106 469.541 619.184 468.68 621.351 468.68V468.68Z" fill="#007C89"/>
<path d="M656.61 539.92H588.66C585.733 539.92 583.36 542.293 583.36 545.22V545.23C583.36 548.157 585.733 550.53 588.66 550.53H656.61C659.537 550.53 661.91 548.157 661.91 545.23V545.22C661.91 542.293 659.537 539.92 656.61 539.92Z" fill="#007C89"/>
<path d="M621.351 468.68C625.861 468.68 629.521 471.94 629.521 475.97V540.03H613.181V475.97C613.181 471.94 616.841 468.68 621.351 468.68Z" fill="url(#paint12_linear)"/>
<path d="M656.61 539.92H588.66C585.733 539.92 583.36 542.293 583.36 545.22V545.23C583.36 548.157 585.733 550.53 588.66 550.53H656.61C659.537 550.53 661.91 548.157 661.91 545.23V545.22C661.91 542.293 659.537 539.92 656.61 539.92Z" fill="url(#paint13_linear)"/>
<path d="M585.94 565.86C590.055 565.86 593.39 562.524 593.39 558.41C593.39 554.295 590.055 550.96 585.94 550.96C581.826 550.96 578.49 554.295 578.49 558.41C578.49 562.524 581.826 565.86 585.94 565.86Z" fill="#007C89"/>
<path d="M621.921 565.86C626.035 565.86 629.371 562.524 629.371 558.41C629.371 554.295 626.035 550.96 621.921 550.96C617.806 550.96 614.471 554.295 614.471 558.41C614.471 562.524 617.806 565.86 621.921 565.86Z" fill="#007C89"/>
<path d="M657.9 565.86C662.015 565.86 665.35 562.524 665.35 558.41C665.35 554.295 662.015 550.96 657.9 550.96C653.786 550.96 650.45 554.295 650.45 558.41C650.45 562.524 653.786 565.86 657.9 565.86Z" fill="#007C89"/>
<path d="M585.94 565.86C590.055 565.86 593.39 562.524 593.39 558.41C593.39 554.295 590.055 550.96 585.94 550.96C581.826 550.96 578.49 554.295 578.49 558.41C578.49 562.524 581.826 565.86 585.94 565.86Z" fill="url(#paint14_linear)"/>
<path d="M585.89 562.5C588.083 562.5 589.86 560.723 589.86 558.53C589.86 556.337 588.083 554.56 585.89 554.56C583.697 554.56 581.92 556.337 581.92 558.53C581.92 560.723 583.697 562.5 585.89 562.5Z" fill="url(#paint15_linear)"/>
<path d="M621.921 565.86C626.035 565.86 629.371 562.524 629.371 558.41C629.371 554.295 626.035 550.96 621.921 550.96C617.806 550.96 614.471 554.295 614.471 558.41C614.471 562.524 617.806 565.86 621.921 565.86Z" fill="url(#paint16_linear)"/>
<path d="M621.84 562.13C624.016 562.13 625.78 560.366 625.78 558.19C625.78 556.014 624.016 554.25 621.84 554.25C619.664 554.25 617.9 556.014 617.9 558.19C617.9 560.366 619.664 562.13 621.84 562.13Z" fill="url(#paint17_linear)"/>
<path d="M657.9 565.86C662.015 565.86 665.35 562.524 665.35 558.41C665.35 554.295 662.015 550.96 657.9 550.96C653.786 550.96 650.45 554.295 650.45 558.41C650.45 562.524 653.786 565.86 657.9 565.86Z" fill="url(#paint18_linear)"/>
<path d="M657.83 562.47C660.105 562.47 661.95 560.625 661.95 558.35C661.95 556.075 660.105 554.23 657.83 554.23C655.555 554.23 653.71 556.075 653.71 558.35C653.71 560.625 655.555 562.47 657.83 562.47Z" fill="url(#paint19_linear)"/>
<path d="M397.843 153.515L328.786 161.53L341.213 268.601L410.269 260.586L397.843 153.515Z" fill="white"/>
<path d="M397.843 153.515L328.786 161.53L341.213 268.601L410.269 260.586L397.843 153.515Z" fill="#007C89"/>
<path opacity="0.69" d="M397.843 153.515L328.786 161.53L341.213 268.601L410.269 260.586L397.843 153.515Z" fill="url(#paint20_linear)"/>
<path d="M353.7 205.47C354.469 205.443 355.224 205.679 355.84 206.14C356.73 206.95 356.65 208.38 356.27 209.52C355.08 213.07 351.83 215.52 350.07 218.84C345.72 227.04 351.52 237.84 347.53 246.17C346.749 247.785 345.638 249.219 344.268 250.378C342.899 251.537 341.302 252.396 339.58 252.9C338.691 250.678 338.289 248.291 338.4 245.9C338.31 236.53 340.43 204.85 353.7 205.47Z" fill="url(#paint21_linear)"/>
<path d="M69.38 186.01C66.65 176.69 63.64 167.09 57.05 159.92C50.46 152.75 39.13 149.03 30.82 153.92C28.24 170.55 25.66 187.61 28.67 204.23C31.68 220.85 41.14 237.23 56.48 243.94C43 254.14 43 274.02 44.29 290.79C47.29 329.64 50.46 368.48 53.47 407.33C54.33 418.22 55.19 429.26 59.92 439.15C67.66 455.64 85 465.96 102.78 469.83C120.56 473.7 139.04 471.98 157.1 470.26C169.43 469.11 182.19 467.68 192.51 460.94C202.83 454.2 210 440.73 205.27 429.4C198.84 413.92 177.74 412.92 160.84 412.35C145.045 411.927 129.357 409.617 114.11 405.47C110.67 404.61 107.11 403.47 104.36 401.02C101.07 398.02 99.63 393.57 98.49 389.41C88.17 353 86.87 313.64 90.03 275.95C92.84 244.41 78.41 215.97 69.38 186.01Z" fill="#3F3D56"/>
<path d="M188.92 431.98C192.36 466.39 192.36 501.08 192.36 535.62C202.01 536.317 211.69 536.508 221.36 536.19C221.291 527.941 221.866 519.699 223.08 511.54C223.94 505.95 225.23 500.36 226.23 494.63C230.756 469.714 230.024 444.127 224.08 419.51C223.239 415.696 222.089 411.957 220.64 408.33C219.64 405.9 218.21 403.33 215.77 402.33C213.33 401.33 210.18 402.19 207.6 403.05C202.44 404.77 197.14 406.49 191.97 408.35C188.39 409.5 181.51 410.5 179.79 414.23C178.07 417.67 180.65 420.11 183.09 422.11C186.92 425.14 188.49 426.68 188.92 431.98Z" fill="#3F3D56"/>
<path d="M188.92 431.98C192.36 466.39 192.36 501.08 192.36 535.62C202.01 536.317 211.69 536.508 221.36 536.19C221.291 527.941 221.866 519.699 223.08 511.54C223.94 505.95 225.23 500.36 226.23 494.63C230.756 469.714 230.024 444.127 224.08 419.51C223.239 415.696 222.089 411.957 220.64 408.33C219.64 405.9 218.21 403.33 215.77 402.33C213.33 401.33 210.18 402.19 207.6 403.05C202.44 404.77 197.14 406.49 191.97 408.35C188.39 409.5 181.51 410.5 179.79 414.23C178.07 417.67 180.65 420.11 183.09 422.11C186.92 425.14 188.49 426.68 188.92 431.98Z" fill="url(#paint22_linear)"/>
<path d="M146.35 204.93C141.62 204.21 136.75 203.5 132.02 203.93C128.965 204.321 125.952 204.99 123.02 205.93C116.71 207.65 110.55 209.66 104.96 213.1C96.0697 218.69 90.0497 227.72 84.5997 236.75C77.6367 248.144 71.5041 260.024 66.2497 272.3C62.6697 280.9 59.6597 290.08 60.3797 299.39C60.6597 302.39 61.2397 305.39 62.9597 307.85C64.7704 310.331 67.0585 312.425 69.6897 314.01C72.9897 316.31 76.1397 318.6 79.4397 320.89C82.0197 322.76 85.3197 324.62 88.0397 323.04C89.3297 351.04 89.7597 378.8 91.0397 406.61C91.1897 410.61 94.4797 417.94 98.3497 419.23C101.08 420.09 101.35 415.93 103.66 414.35C120.12 403.14 133.59 387.98 149.84 376.22C166.09 364.46 186.39 355.87 205.6 361.03C203.45 333.65 201.6 306.13 200.01 278.75C221.23 284.49 239.14 299.54 260.5 304.84C263.37 305.56 266.38 306.13 269.25 305.56C272.4 304.98 275.12 302.98 277.7 301.11C295.91 288.21 314.26 275.31 332.46 262.41C333.809 261.687 334.868 260.522 335.46 259.11C336.18 257.11 335.03 255.11 334.03 253.24C331.03 248.08 328.15 242.92 325.14 237.9C307.885 251.989 287.635 261.943 265.94 267C262.64 267.71 259.2 268.43 255.94 267.43C252.68 266.43 250.2 264.27 247.77 262.12C236.15 251.8 225.12 240.62 212.65 231.45C200.18 222.28 185.98 214.68 170.5 212.38C162.5 211.24 152.73 210.66 148.72 203.5C147.901 203.927 147.109 204.405 146.35 204.93V204.93Z" fill="#007C89"/>
<path d="M335.42 259.14C334.828 260.552 333.769 261.717 332.42 262.44C314.22 275.34 295.87 288.24 277.66 301.14C275.08 303.01 272.36 305.01 269.21 305.59C266.34 306.16 263.33 305.59 260.46 304.87C239.1 299.57 221.19 284.52 199.97 278.78L203.57 225.66C215.21 234.52 236.73 252.39 247.71 262.15C250.14 264.3 252.71 266.6 255.88 267.46C259.05 268.32 262.61 267.74 265.88 267.03C287.575 261.973 307.825 252.019 325.08 237.93C328.08 242.93 330.96 248.11 333.97 253.27C334.99 255.14 336.14 257.14 335.42 259.14Z" fill="#007C89"/>
<path d="M335.42 259.14C334.828 260.552 333.769 261.717 332.42 262.44C314.22 275.34 295.87 288.24 277.66 301.14C275.08 303.01 272.36 305.01 269.21 305.59C266.34 306.16 263.33 305.59 260.46 304.87C239.1 299.57 221.19 284.52 199.97 278.78L203.57 225.66C215.21 234.52 236.73 252.39 247.71 262.15C250.14 264.3 252.71 266.6 255.88 267.46C259.05 268.32 262.61 267.74 265.88 267.03C287.575 261.973 307.825 252.019 325.08 237.93C328.08 242.93 330.96 248.11 333.97 253.27C334.99 255.14 336.14 257.14 335.42 259.14Z" fill="url(#paint23_linear)"/>
<path d="M199.96 278.75C201.54 306.13 203.4 333.65 205.55 361.03C186.34 355.87 165.99 364.47 149.79 376.22C133.59 387.97 120.12 403.14 103.64 414.35C101.34 415.93 101.06 420.09 98.3302 419.23C94.4602 417.94 91.1702 410.63 91.0202 406.61C89.7302 378.8 89.3002 351 88.0202 323.04C85.3002 324.62 82.0202 322.76 79.4202 320.89C76.1202 318.6 72.9702 316.31 69.6702 314.01C67.039 312.425 64.7509 310.331 62.9402 307.85C61.2202 305.41 60.6402 302.4 60.3602 299.39C59.6402 290.08 62.6502 280.9 66.2302 272.3C71.4846 260.024 77.6172 248.144 84.5802 236.75C90.0302 227.75 96.0502 218.69 104.94 213.1C110.53 209.66 116.69 207.65 123 205.93C125.933 204.99 128.945 204.321 132 203.93C136.73 203.5 141.6 204.21 146.33 204.93C147.067 204.407 147.835 203.93 148.63 203.5C152.63 210.66 162.39 211.24 170.41 212.38C178.958 213.745 187.23 216.477 194.91 220.47C201.1 223.59 198 221.55 203.54 225.63C204.23 226.13 201.66 240.85 202.33 241.37L199.96 278.75Z" fill="url(#paint24_linear)"/>
<path d="M114.51 335.95V327.87C114.488 327.649 114.541 327.428 114.66 327.24C114.769 327.143 114.898 327.072 115.038 327.03C115.178 326.989 115.325 326.978 115.47 327L146.66 327.4C146.936 327.365 147.218 327.392 147.483 327.481C147.748 327.569 147.989 327.716 148.19 327.91C148.398 328.284 148.469 328.719 148.39 329.14L148.05 333.94C148.092 334.111 148.088 334.289 148.039 334.458C147.99 334.627 147.898 334.779 147.771 334.901C147.645 335.023 147.488 335.109 147.317 335.151C147.147 335.193 146.968 335.189 146.8 335.14H131.6C127.03 335.14 120.81 334.01 116.4 335.14C113.66 335.84 114.31 336.45 114.24 339.57C114.18 341.97 114.13 344.373 114.09 346.78C114.01 351.58 113.976 356.387 113.99 361.2C113.99 369.2 114.16 377.29 114.89 385.3C114.99 386.41 117.71 398.51 117.55 398.68L98.9595 417.68C98.9595 417.68 92.1095 416.81 91.6495 405.07C91.1895 393.33 87.5195 321.79 87.5195 321.79L101.94 291.62L118.63 254.49C118.63 254.49 115.45 296.3 114.35 335.18" fill="url(#paint25_linear)"/>
<path d="M180.18 232.6C173.75 208.08 167.64 213.12 157.55 214.73C147.46 216.34 146.78 228.3 146.78 228.3C149.48 243.39 149.78 279.42 149.48 303.93C149.34 324.71 145.38 342.35 148.67 362.85C148.96 364.85 144.67 368.2 146.67 369.06C147.877 369.485 149.193 369.485 150.4 369.06C160 366.76 167.6 358.74 177.34 357.16C178.49 357.02 179.78 356.73 180.21 355.87C180.388 355.512 180.487 355.12 180.5 354.72C183.22 332.94 185.8 311.15 188.5 289.22C189.22 282.91 190.08 276.46 189.22 270.01C187.64 258.11 180.91 234.46 180.48 234.89" fill="white"/>
<path d="M147.11 230.73C147.86 236.29 150.73 240.81 154.59 244.89C154.806 245.168 155.114 245.36 155.46 245.43C155.778 245.419 156.084 245.303 156.33 245.1C159.354 243.128 161.776 240.359 163.33 237.1C164.341 239.618 164.758 242.335 164.55 245.04C164.09 251.23 165.09 257.74 164.26 263.89C162.31 278.3 160.39 290.04 155.01 306.79C159.4 308.91 167.12 305.24 168.92 300.7C170.72 296.16 170.05 291.09 169.71 286.22C168.25 265.36 173.47 244.12 169.27 223.63C169.154 222.409 168.604 221.27 167.72 220.42C166.773 219.85 165.671 219.592 164.57 219.68C160.163 219.613 155.753 219.72 151.34 220C150.196 219.964 149.068 220.271 148.1 220.88C146.11 222.4 146.78 228.3 147.11 230.73Z" fill="url(#paint26_linear)"/>
<path d="M137.75 205.79C137.32 207.22 138.04 208.66 138.61 210.09C143.61 220.84 149.22 231.31 155.1 241.48C158.077 234.905 161.575 228.578 165.56 222.56C165.786 222.169 166.139 221.865 166.56 221.7C166.795 221.72 167.022 221.795 167.222 221.92C167.422 222.046 167.59 222.217 167.71 222.42C171.44 226.29 175.31 230.16 180.18 232.6C182.62 233.74 185.34 234.75 186.77 237.04C188.35 237.18 188.64 234.89 188.35 233.31C186.951 227.539 184.981 221.921 182.47 216.54C180.47 212.24 177.6 207.54 172.87 206.65C170.58 206.22 168.14 206.79 165.87 206.79C158.87 206.94 155.98 202.35 150.53 199.2C146.07 196.47 139.19 201.06 137.75 205.79Z" fill="white"/>
<path d="M165.56 236.04C166.36 236.978 167.079 237.981 167.71 239.04C168.86 241.62 167.71 244.48 166.85 247.21C164.99 252.94 164.41 259.1 163.98 265.27C162.69 285.05 161.83 304.83 158.25 324.32C157.777 326.283 157.585 328.303 157.68 330.32C158.022 332.394 158.751 334.386 159.83 336.19L164.99 346.51C168.612 341.229 171.414 335.43 173.3 329.31C173.772 327.766 174.106 326.183 174.3 324.58C174.375 322.256 174.084 319.934 173.44 317.7C170.72 305.09 171.44 295.14 172.22 281.15C173.65 270.54 175.59 258.79 176.31 248.15C176.45 245.43 176.31 242.27 174.31 240.27C173.6 239.69 172.74 239.12 172.59 238.27C172.495 237.693 172.547 237.102 172.74 236.55C173.17 234.83 173.74 233.11 174.17 231.39C174.359 230.988 174.408 230.534 174.31 230.1C174.17 229.38 173.31 228.95 172.59 228.67C169.752 227.291 167.549 224.88 166.43 221.93C166.72 222.65 163.43 227.09 163.28 228.52C163.116 231.219 163.925 233.887 165.56 236.04V236.04Z" fill="#007C89"/>
<path d="M327.97 231.45C327.82 229.16 327.54 226.72 328.25 224.57C328.96 222.42 330.69 220.57 332.41 218.83C337.57 213.83 342.59 208.83 347.75 203.93C348.225 205.282 348.418 206.716 348.318 208.145C348.219 209.574 347.828 210.968 347.17 212.24C346.31 213.96 344.88 215.39 344.31 217.24C344.016 218.312 343.871 219.419 343.88 220.53C343.88 226.27 344.88 232.15 344.16 237.88C343.44 243.61 340.44 249.63 334.99 251.64C334.538 251.829 334.04 251.878 333.56 251.78C333.183 251.679 332.839 251.482 332.56 251.21C329.444 248.777 327.185 245.414 326.11 241.61C325.1 237.9 328.11 235.14 327.97 231.45Z" fill="url(#paint27_linear)"/>
<path d="M196.9 317.04C193.46 323.49 193.07 324.91 183.51 331.36C183.305 331.798 183.012 332.189 182.65 332.51C182.329 332.624 181.989 332.671 181.65 332.65C172.05 333.08 162.45 331.07 152.98 330.07C135.21 328.35 93.6996 329.15 81.1696 321.9C73.8596 319.6 59.7496 309.1 59.8996 301.5C59.8996 296.05 59.2196 284.01 63.5196 280.72C64.0696 280.31 64.3396 276.03 65.2696 275.95C67.1496 272.69 65.9996 271.73 73.1096 257.62C90.8396 222.39 104.93 213.14 112.75 210.29C120.57 207.44 122.84 247.43 121.64 253.08C120.44 258.73 101.96 291.67 101.96 291.67C101.96 291.67 112.29 294.61 119.72 296.53C144.23 302.98 169.89 304.41 195.26 305.7C195.69 307.85 197.91 315.04 196.9 317.04Z" fill="#007C89"/>
<path d="M196.71 313.81C193.27 320.26 193.71 321.5 190.24 327.95C189.96 328.38 182.1 331.69 181.74 332.52C181.74 332.61 181.67 332.65 181.64 332.65C172.04 333.08 162.44 331.07 152.97 330.07C135.2 328.35 93.6898 329.15 81.1598 321.9C73.8498 319.6 59.7398 309.1 59.8898 301.5C59.8898 296.05 59.2098 284.01 63.5098 280.72C64.0598 280.31 64.3298 276.03 65.2598 275.94C67.1398 272.69 65.9898 271.73 73.0998 257.61C90.8398 222.39 104.93 213.14 112.75 210.29C120.57 207.44 122.84 247.43 121.64 253.08C120.44 258.73 101.96 291.67 101.96 291.67C101.96 291.67 112.34 294.67 119.72 296.53C143.99 302.92 169.37 304.38 194.5 305.66H195.26C195.69 307.85 197.71 311.81 196.71 313.81Z" fill="url(#paint28_linear)"/>
<path d="M196.71 313.81C193.27 320.26 193.82 320.62 190.38 327.07C190.09 327.5 182.1 331.69 181.74 332.52C181.305 332.1 180.913 331.638 180.57 331.14C179.268 329.203 178.491 326.96 178.315 324.632C178.14 322.304 178.572 319.971 179.57 317.86C180.664 315.771 182.131 313.9 183.9 312.34C186.951 309.447 190.538 307.177 194.46 305.66H195.22C195.69 307.85 197.71 311.81 196.71 313.81Z" fill="url(#paint29_linear)"/>
<path d="M206.98 313.05C208.98 313.91 210.85 314.91 212.72 315.92C222.89 321.36 233.07 326.92 242.1 333.98C243.1 334.84 244.25 335.84 244.25 337.13C244.25 338.85 242.39 339.86 240.67 340.43C233.031 342.825 224.813 342.625 217.3 339.86C211.57 337.71 206.12 334.12 200.1 333.55C198.674 333.486 197.252 333.349 195.84 333.14C193.738 332.588 191.75 331.667 189.97 330.42C186.24 328.12 182.37 324.68 182.66 320.24C183.09 313.07 191.4 311.24 197.28 311.24C200.57 311.24 203.87 312.38 207.02 312.1C212.18 311.67 217.49 312.67 222.79 312.67C223.645 312.569 224.508 312.77 225.23 313.24C225.608 313.632 225.852 314.132 225.929 314.671C226.007 315.209 225.912 315.758 225.66 316.24C224.66 318.82 221.66 319.97 218.92 320.54C216.05 321.26 213.04 321.83 210.18 321.26C209.405 321.131 208.663 320.849 207.999 320.43C207.334 320.011 206.76 319.464 206.31 318.82C205.874 318.121 205.582 317.343 205.45 316.53C205.273 315.258 205.471 313.962 206.02 312.8" fill="url(#paint30_linear)"/>
<path d="M98.3295 419.23C133.224 428.247 170.215 424.115 202.26 407.62C201.83 413.92 227.05 505.62 232.07 522.62C232.295 523.337 232.759 523.956 233.385 524.373C234.011 524.789 234.761 524.979 235.51 524.91C242.96 524.05 245.26 528.49 263.89 517.91C250.56 507.91 254.72 404.24 247.41 389.33C243.54 381.44 239.95 372.41 231.93 368.83C223.04 364.83 211.14 369.12 203.69 362.83C203.69 362.83 196.57 353.52 169.69 364.28C142.81 375.04 98.0395 413.45 98.3295 419.23Z" fill="#525263"/>
<path d="M98.3295 419.23C133.224 428.247 170.215 424.115 202.26 407.62C201.83 413.92 227.05 505.62 232.07 522.62C232.295 523.337 232.759 523.956 233.385 524.373C234.011 524.789 234.761 524.979 235.51 524.91C242.96 524.05 245.26 528.49 263.89 517.91C250.56 507.91 254.72 404.24 247.41 389.33C243.54 381.44 239.95 372.41 231.93 368.83C223.04 364.83 211.14 369.12 203.69 362.83C203.69 362.83 196.57 353.52 169.69 364.28C142.81 375.04 98.0395 413.45 98.3295 419.23Z" fill="url(#paint31_linear)"/>
<path d="M605.48 336.8H225.19V366.62H605.48V336.8Z" fill="#007C89"/>
<path d="M243.39 544.79C243.708 545.718 244.31 546.523 245.11 547.09C245.933 547.433 246.81 547.626 247.7 547.66C261.17 547.81 274.07 542.93 286.7 538.2C290 536.91 293.3 535.62 295.88 533.2C298.46 530.78 299.6 526.75 298.03 523.6C296.03 519.87 291.03 519.16 286.85 519.01C280.54 518.73 274.23 518.3 267.93 518.01C266.782 517.917 265.627 517.964 264.49 518.15C263.056 518.601 261.664 519.176 260.33 519.87C256.967 521.699 253.407 523.141 249.72 524.17C247.14 524.89 243.27 524.89 241.12 526.9C236.51 531.14 241.39 540.21 243.39 544.79Z" fill="#007C89"/>
<path d="M243.39 544.79C243.708 545.718 244.31 546.523 245.11 547.09C245.933 547.433 246.81 547.626 247.7 547.66C261.17 547.81 274.07 542.93 286.7 538.2C290 536.91 293.3 535.62 295.88 533.2C298.46 530.78 299.6 526.75 298.03 523.6C296.03 519.87 291.03 519.16 286.85 519.01C280.54 518.73 274.23 518.3 267.93 518.01C266.782 517.917 265.627 517.964 264.49 518.15C263.056 518.601 261.664 519.176 260.33 519.87C256.967 521.699 253.407 523.141 249.72 524.17C247.14 524.89 243.27 524.89 241.12 526.9C236.51 531.14 241.39 540.21 243.39 544.79Z" fill="url(#paint32_linear)"/>
<path d="M582.69 424.67C573.22 427.25 563.62 431.12 558.17 439.87C556.78 441.982 555.853 444.364 555.452 446.86C555.05 449.356 555.182 451.909 555.84 454.35C558.99 465.24 571.32 467.82 581.84 469.11C602.62 471.55 623.69 473.11 644.62 471.11C660.39 469.53 677.16 465.37 687.19 453.19C690.92 448.75 693.5 443.44 695.79 437.99C705.79 413.05 706.79 385.53 707.79 358.58C707.94 355.29 707.94 351.99 707.94 348.69C707.79 335.69 689.88 332.07 684.86 344.25C681.86 351.56 679.27 357.72 678.69 359.59C673.53 375.35 671.81 396.43 664.22 410.9C657.62 423.52 649.6 420.51 636.41 419.5C618.339 418.135 600.168 419.883 582.69 424.67V424.67Z" fill="#3F3D56"/>
<path d="M582.69 424.67C573.22 427.25 563.62 431.12 558.17 439.87C556.78 441.982 555.853 444.364 555.452 446.86C555.05 449.356 555.182 451.909 555.84 454.35C558.99 465.24 571.32 467.82 581.84 469.11C602.62 471.55 623.69 473.11 644.62 471.11C660.39 469.53 677.16 465.37 687.19 453.19C690.92 448.75 693.5 443.44 695.79 437.99C705.79 413.05 706.79 385.53 707.79 358.58C707.94 355.29 707.94 351.99 707.94 348.69C707.79 335.69 689.88 332.07 684.86 344.25C681.86 351.56 679.27 357.72 678.69 359.59C673.53 375.35 671.81 396.43 664.22 410.9C657.62 423.52 649.6 420.51 636.41 419.5C618.339 418.135 600.168 419.883 582.69 424.67V424.67Z" fill="url(#paint33_linear)"/>
<path d="M598.17 179.7C599.74 181.42 601.75 182.57 603.17 184.29C607.47 189.16 606.9 197.29 612.06 201.35C614.188 202.836 616.652 203.77 619.23 204.07C626.68 205.36 634.71 205.22 641.02 201.07C645.46 198.07 648.47 193.47 650.91 188.74C655.49 179 657.5 167.67 654.78 157.21C650.48 141.3 627.68 124.1 612.63 138.86C608.05 143.3 608.63 150.61 607.76 156.49C607.04 161.22 606.04 165.49 602.6 169.25C599.46 172.25 593.58 174.4 598.17 179.7Z" fill="url(#paint34_linear)"/>
<path d="M600.03 149.46C600.115 150.308 600.359 151.133 600.75 151.89C601.494 152.756 602.497 153.36 603.61 153.61C609.73 155.769 616.079 157.212 622.53 157.91C623.82 156.48 625.26 155.05 626.53 153.61C626.956 155.295 627.101 157.038 626.96 158.77C631.011 160.042 635.127 161.097 639.29 161.93C640.72 177.7 636.29 193.32 631.83 208.51C647.27 213.945 663.665 216.141 679.99 214.96C685.16 197.48 688.6 178.96 685.44 160.96C682.28 142.96 671.97 125.42 655.63 117.39C642.73 111.08 627.24 111.51 614.2 117.1C602.47 122.22 598.6 137.85 600.03 149.46Z" fill="#3F3D56"/>
<path d="M680.84 289.93C678.84 314.87 676.84 339.67 674.84 364.61C674.13 374.22 673.27 383.96 670.54 393.28C665.887 408.711 656.077 422.076 642.75 431.14C629.13 440.32 612.93 444.33 597.02 448.2C573.37 453.94 559.13 450.05 549.44 466.2C509.44 453.69 504.88 427.46 505.44 416.43C506.01 405.82 512.97 400.01 528.64 394.32C554.95 381.18 565.9 378.55 584.4 369.23C605.9 358.34 616.93 333.97 622.4 310.46C627.87 286.95 616.65 260.78 626.54 238.84C632.27 226.09 650.05 208.74 662.54 223.36C674.84 238.14 682.31 272.73 680.84 289.93Z" fill="#007C89"/>
<path d="M680.84 289.93C678.84 314.87 676.84 339.67 674.84 364.61C674.13 374.22 673.27 383.96 670.54 393.28C665.887 408.711 656.077 422.076 642.75 431.14C629.13 440.32 612.93 444.33 597.02 448.2C573.37 453.94 559.13 450.05 549.44 466.2C509.44 453.69 504.88 427.46 505.44 416.42C506.02 405.81 512.97 400.01 528.64 394.32C554.95 381.19 565.9 378.55 584.4 369.23C585.943 368.447 587.445 367.586 588.9 366.65H605.47V350.65C613.82 339.03 619.11 324.6 622.38 310.49C627.68 286.98 616.63 260.81 626.52 238.88C632.26 226.12 650.03 208.77 662.52 223.4C675.01 238.03 682.31 272.73 680.84 289.93Z" fill="url(#paint35_linear)"/>
<path d="M659.62 257.92C659.62 257.92 657.19 343.49 642.67 358.01C628.15 372.53 558.67 404.01 552.27 405.64C546 407.19 519.06 421.84 518.1 422.32L517.56 399.71L588.91 366.62H605.48V350.62C613.62 334.62 628.96 298.31 628.96 298.31L659.62 257.92Z" fill="url(#paint36_linear)"/>
<path d="M527.36 533.33C526.652 532.965 525.852 532.815 525.06 532.9C524.574 533.066 524.096 533.256 523.63 533.47C514.892 538.914 507.016 545.632 500.26 553.4C499.98 553.83 499.55 554.26 499.55 554.69C499.55 555.4 500.26 555.83 500.84 556.12C505.42 558.27 510.73 557.7 515.6 556.55C523.061 554.876 530.223 552.074 536.84 548.24C541.14 545.8 545.44 544.36 548.73 548.95C550.88 551.95 552.03 557.41 556.9 553.54C561.77 549.67 556.76 535.48 554.47 531.18C545.42 534.76 536.96 536.91 527.36 533.33Z" fill="#3F3D56"/>
<path d="M207.56 135.84C207.7 141.84 209.42 148.74 214.73 151.32C215.87 151.89 217.31 152.32 218.17 153.47C219.31 155.05 218.45 157.47 217.02 158.92C215.59 160.37 213.72 161.21 212.15 162.5C208.99 165.08 207.7 169.24 207.15 173.25C206.6 177.26 206.29 181.25 204.86 185.01C203.646 187.997 201.67 190.614 199.129 192.6C196.589 194.586 193.572 195.872 190.38 196.33C187.65 196.62 184.79 196.33 181.92 196.62C179.05 196.91 176.19 197.91 174.61 200.2C172.61 203.07 173.18 207.37 170.74 209.66C168.3 211.95 164.15 211.38 160.85 210.38C156.98 209.38 152.85 208.08 150.67 204.79C149.631 203.039 148.995 201.078 148.81 199.05C146.95 187.3 149.67 175.26 147.95 163.65C147.23 159.06 145.8 154.65 145.23 149.89C144.363 144.014 144.656 138.024 146.09 132.26C148.09 124.52 152.54 116.92 159.56 113.19C165.29 110.19 172.17 109.89 178.77 110.32C187.148 110.82 195.385 112.712 203.14 115.92C209.84 118.78 207.42 129.53 207.56 135.84Z" fill="url(#paint37_linear)"/>
<path d="M202.11 105.14C204.361 106.741 206.262 108.782 207.7 111.14C208.99 113.58 209.14 116.88 207.27 119.03C205.84 120.75 203.4 121.47 201.27 122.03C191.81 124.47 181.2 126.47 172.6 121.74C172.339 121.582 172.045 121.486 171.74 121.46C170.88 121.46 170.31 122.46 170.17 123.32C167.686 133.18 166.196 143.263 165.72 153.42C164.58 153.85 163.72 152.42 163.14 151.42C162.487 150.003 161.378 148.845 159.99 148.13C158.56 147.41 156.69 147.41 155.69 148.56C155.177 149.089 154.785 149.724 154.54 150.42C152.68 155.87 156.12 162.6 161.54 164.32C158.1 166.76 156.54 170.92 154.54 174.65C153.378 176.969 151.934 179.135 150.24 181.1C149.1 182.39 147.81 183.82 146.09 183.96C145.312 183.974 144.542 183.799 143.845 183.451C143.149 183.103 142.547 182.591 142.09 181.96C141.227 180.627 140.554 179.179 140.09 177.66C138.94 174.22 137.93 170.92 136.79 167.48C135.474 163.722 134.372 159.893 133.49 156.01C132.722 152.235 132.171 148.418 131.84 144.58C131.56 141.58 131.27 138.71 130.98 135.7C130.579 133.088 130.532 130.434 130.84 127.81C131.27 124.09 132.99 120.65 134.84 117.21C136.018 114.819 137.515 112.598 139.29 110.61C141.13 108.696 143.638 107.567 146.29 107.46C146.955 107.529 147.626 107.529 148.29 107.46C148.901 107.207 149.442 106.813 149.87 106.31C155.162 101.795 161.619 98.8627 168.5 97.85C174.987 96.7297 181.6 96.5377 188.14 97.28C193.37 98.14 197.96 102.01 202.11 105.14Z" fill="#3F3D56"/>
<path d="M186.84 196.3C186.84 196.3 172.58 191.46 168.01 195.23C163.44 199 160.84 210.38 160.84 210.38C160.84 210.38 167.22 212.53 170.73 209.66C174.24 206.79 172.99 200.74 176.94 198.72C180.89 196.7 186.84 196.3 186.84 196.3Z" fill="url(#paint38_linear)"/>
<path d="M517.89 365.67H288.69V575.18H517.89V365.67Z" fill="#007C89"/>
<path d="M517.89 366.48H288.69V575.18H517.89V366.48Z" fill="url(#paint39_linear)"/>
<path d="M194.84 308.91L198.6 309.98L198.47 311.19C198.47 311.19 190.94 311.86 188.65 315.09C186.36 318.32 180.98 323.3 187.98 329.09L184.88 330.31C184.88 330.31 178.83 326.54 181.25 321.31C183.67 316.08 184.73 312.27 194.84 308.91Z" fill="white"/>
<path d="M325.18 238.34L326.73 236.8C326.73 236.8 334.6 251.19 335.6 251.59C336.6 251.99 333.92 254.02 333.92 254.02C333.92 254.02 324.98 245.07 325.18 238.34Z" fill="white"/>
<path d="M605.08 336.8H224.79V366.62H605.08V336.8Z" fill="url(#paint40_linear)"/>
<path d="M240.89 539.02C240.89 539.02 266.52 537.61 276.81 531.96C287.1 526.31 288.32 527.72 288.32 527.72L288.12 536.6C288.12 536.6 257.24 550.52 244.43 546.08L240.89 539.02Z" fill="url(#paint41_linear)"/>
<path d="M194.68 548.14C194.68 548.14 205.98 557.29 213.52 559.71C221.06 562.13 232.76 570.07 235.72 568.99C237.596 568.239 239.192 566.926 240.29 565.23C240.29 565.23 242.79 567.86 242.01 569.77C241.23 571.68 239.21 577.47 230.07 572.63C220.93 567.79 200.2 560.79 196.7 556.89C195.683 555.703 194.967 554.287 194.616 552.763C194.264 551.239 194.286 549.653 194.68 548.14V548.14Z" fill="url(#paint42_linear)"/>
<path d="M645.18 216.97C642.32 216.54 639.45 216.11 636.73 216.97C634.173 217.847 631.863 219.321 629.99 221.27C617.23 232.88 617.09 259.69 611.07 275.89C605.05 292.09 602.75 300.25 586.7 306.13C578.82 309 557.31 309.28 553.59 316.74C552.01 319.74 552.01 323.19 552.01 326.63C552.01 332.36 552.58 338.63 556.45 342.97C561.18 347.97 568.92 348.27 575.81 347.84C584.98 347.27 594.3 346.27 603.33 344.84C610.64 343.7 617.95 342.12 624.25 338.39C631.71 334.09 637.3 327.39 641.74 320.04C654.5 298.97 657.8 273.74 660.66 249.38C661.38 242.93 664.82 231.03 661.81 224.72C659.23 219.14 650.63 217.83 645.18 216.97Z" fill="#007C89"/>
<path d="M645.18 216.97C642.32 216.54 639.45 216.11 636.73 216.97C634.173 217.847 631.863 219.321 629.99 221.27C617.23 232.88 617.09 259.69 611.07 275.89C605.05 292.09 602.75 300.25 586.7 306.13C578.82 309 557.31 309.28 553.59 316.74C552.01 319.74 552.01 323.19 552.01 326.63C552.01 332.36 552.58 338.63 556.45 342.97C561.18 347.97 568.92 348.27 575.81 347.84C584.98 347.27 594.3 346.27 603.33 344.84C610.64 343.7 617.95 342.12 624.25 338.39C631.71 334.09 637.3 327.39 641.74 320.04C654.5 298.97 657.8 273.74 660.66 249.38C661.38 242.93 664.82 231.03 661.81 224.72C659.23 219.14 650.63 217.83 645.18 216.97Z" fill="url(#paint43_linear)"/>
<path d="M556.84 317.14C557.411 317.176 557.959 317.373 558.42 317.71C558.794 318.253 558.948 318.918 558.85 319.57V328.57C558.85 331.16 558.85 334.17 556.99 336.17C555.41 337.89 552.99 338.47 550.54 338.75C542.94 339.47 535.2 338.04 527.46 337.46C520.346 336.911 513.197 337.008 506.1 337.75C505.278 337.946 504.414 337.843 503.66 337.46C502.09 336.46 503.09 334.02 504.24 332.46C506.24 329.87 508.24 327.15 510.4 324.57C511.417 323.079 512.678 321.77 514.13 320.7C516.85 318.7 520.29 318.55 523.59 318.7C526.822 318.556 530.035 318.125 533.19 317.41C541.006 316.032 548.995 315.94 556.84 317.14V317.14Z" fill="url(#paint44_linear)"/>
</g>
<defs>
<linearGradient id="paint0_linear" x1="375.11" y1="429.38" x2="376.32" y2="717.54" gradientUnits="userSpaceOnUse">
<stop offset="0.01"/>
<stop offset="0.13" stop-opacity="0.69"/>
<stop offset="1" stop-opacity="0"/>
</linearGradient>
<linearGradient id="paint1_linear" x1="12543.9" y1="22329.9" x2="12246.6" y2="26381.8" gradientUnits="userSpaceOnUse">
<stop offset="0.01"/>
<stop offset="0.13" stop-opacity="0.69"/>
<stop offset="1" stop-opacity="0"/>
</linearGradient>
<linearGradient id="paint2_linear" x1="627.262" y1="216.658" x2="654.662" y2="205.809" gradientUnits="userSpaceOnUse">
<stop stop-color="#ECC4D7"/>
<stop offset="0.42" stop-color="#EFD4D1"/>
<stop offset="1" stop-color="#F2EAC9"/>
</linearGradient>
<linearGradient id="paint3_linear" x1="21683.4" y1="-10156.7" x2="23155" y2="-10156.7" gradientUnits="userSpaceOnUse">
<stop stop-color="#ECC4D7"/>
<stop offset="0.42" stop-color="#EFD4D1"/>
<stop offset="1" stop-color="#F2EAC9"/>
</linearGradient>
<linearGradient id="paint4_linear" x1="2683.7" y1="35603.6" x2="4089.92" y2="36023.7" gradientUnits="userSpaceOnUse">
<stop offset="0.01"/>
<stop offset="0.13" stop-opacity="0.69"/>
<stop offset="1" stop-opacity="0"/>
</linearGradient>
<linearGradient id="paint5_linear" x1="10882.4" y1="6137.78" x2="10886.7" y2="6667.78" gradientUnits="userSpaceOnUse">
<stop offset="0.01"/>
<stop offset="0.13" stop-opacity="0.69"/>
<stop offset="1" stop-opacity="0"/>
</linearGradient>
<linearGradient id="paint6_linear" x1="1622.03" y1="8486.38" x2="1581.94" y2="9624.89" gradientUnits="userSpaceOnUse">
<stop offset="0.01"/>
<stop offset="0.13" stop-opacity="0.69"/>
<stop offset="1" stop-opacity="0"/>
</linearGradient>
<linearGradient id="paint7_linear" x1="907.967" y1="4879.96" x2="896.613" y2="5203.27" gradientUnits="userSpaceOnUse">
<stop offset="0.01"/>
<stop offset="0.13" stop-opacity="0.69"/>
<stop offset="1" stop-opacity="0"/>
</linearGradient>
<linearGradient id="paint8_linear" x1="2193.36" y1="8505.16" x2="2153.28" y2="9643.81" gradientUnits="userSpaceOnUse">
<stop offset="0.01"/>
<stop offset="0.13" stop-opacity="0.69"/>
<stop offset="1" stop-opacity="0"/>
</linearGradient>
<linearGradient id="paint9_linear" x1="1220.86" y1="4850.51" x2="1209.67" y2="5168.62" gradientUnits="userSpaceOnUse">
<stop offset="0.01"/>
<stop offset="0.13" stop-opacity="0.69"/>
<stop offset="1" stop-opacity="0"/>
</linearGradient>
<linearGradient id="paint10_linear" x1="2764.85" y1="8524.08" x2="2724.77" y2="9662.59" gradientUnits="userSpaceOnUse">
<stop offset="0.01"/>
<stop offset="0.13" stop-opacity="0.69"/>
<stop offset="1" stop-opacity="0"/>
</linearGradient>
<linearGradient id="paint11_linear" x1="1602.91" y1="5048.9" x2="1590.64" y2="5396.79" gradientUnits="userSpaceOnUse">
<stop offset="0.01"/>
<stop offset="0.13" stop-opacity="0.69"/>
<stop offset="1" stop-opacity="0"/>
</linearGradient>
<linearGradient id="paint12_linear" x1="11077" y1="35603.6" x2="12481" y2="36022.3" gradientUnits="userSpaceOnUse">
<stop offset="0.01"/>
<stop offset="0.13" stop-opacity="0.69"/>
<stop offset="1" stop-opacity="0"/>
</linearGradient>
<linearGradient id="paint13_linear" x1="49409.2" y1="6137.78" x2="49413.5" y2="6667.78" gradientUnits="userSpaceOnUse">
<stop offset="0.01"/>
<stop offset="0.13" stop-opacity="0.69"/>
<stop offset="1" stop-opacity="0"/>
</linearGradient>
<linearGradient id="paint14_linear" x1="9322.57" y1="8486.38" x2="9282.49" y2="9624.89" gradientUnits="userSpaceOnUse">
<stop offset="0.01"/>
<stop offset="0.13" stop-opacity="0.69"/>
<stop offset="1" stop-opacity="0"/>
</linearGradient>
<linearGradient id="paint15_linear" x1="5237.78" y1="4879.96" x2="5226.34" y2="5203.27" gradientUnits="userSpaceOnUse">
<stop offset="0.01"/>
<stop offset="0.13" stop-opacity="0.69"/>
<stop offset="1" stop-opacity="0"/>
</linearGradient>
<linearGradient id="paint16_linear" x1="9894.06" y1="8505.16" x2="9853.98" y2="9643.81" gradientUnits="userSpaceOnUse">
<stop offset="0.01"/>
<stop offset="0.13" stop-opacity="0.69"/>
<stop offset="1" stop-opacity="0"/>
</linearGradient>
<linearGradient id="paint17_linear" x1="5521.55" y1="4850.51" x2="5510.36" y2="5168.62" gradientUnits="userSpaceOnUse">
<stop offset="0.01"/>
<stop offset="0.13" stop-opacity="0.69"/>
<stop offset="1" stop-opacity="0"/>
</linearGradient>
<linearGradient id="paint18_linear" x1="10465.4" y1="8524.08" x2="10425.3" y2="9662.59" gradientUnits="userSpaceOnUse">
<stop offset="0.01"/>
<stop offset="0.13" stop-opacity="0.69"/>
<stop offset="1" stop-opacity="0"/>
</linearGradient>
<linearGradient id="paint19_linear" x1="6077.93" y1="5048.9" x2="6065.65" y2="5396.79" gradientUnits="userSpaceOnUse">
<stop offset="0.01"/>
<stop offset="0.13" stop-opacity="0.69"/>
<stop offset="1" stop-opacity="0"/>
</linearGradient>
<linearGradient id="paint20_linear" x1="387.824" y1="209.162" x2="403.164" y2="207.552" gradientUnits="userSpaceOnUse">
<stop offset="0.02" stop-color="white" stop-opacity="0"/>
<stop offset="0.58" stop-color="white" stop-opacity="0.39"/>
<stop offset="0.68" stop-color="white" stop-opacity="0.68"/>
<stop offset="1" stop-color="white"/>
</linearGradient>
<linearGradient id="paint21_linear" x1="7139.64" y1="11450.9" x2="7469.03" y2="11450.9" gradientUnits="userSpaceOnUse">
<stop offset="0.01"/>
<stop offset="0.13" stop-opacity="0.69"/>
<stop offset="1" stop-opacity="0"/>
</linearGradient>
<linearGradient id="paint22_linear" x1="11320.3" y1="64527.9" x2="13813" y2="64527.9" gradientUnits="userSpaceOnUse">
<stop offset="0.01"/>
<stop offset="0.13" stop-opacity="0.69"/>
<stop offset="1" stop-opacity="0"/>
</linearGradient>
<linearGradient id="paint23_linear" x1="31262.8" y1="25928.2" x2="40313.2" y2="11947.8" gradientUnits="userSpaceOnUse">
<stop offset="0.01"/>
<stop offset="0.13" stop-opacity="0.69"/>
<stop offset="1" stop-opacity="0"/>
</linearGradient>
<linearGradient id="paint24_linear" x1="36744.9" y1="101029" x2="-6486.91" y2="41250.1" gradientUnits="userSpaceOnUse">
<stop offset="0.01"/>
<stop offset="0.13" stop-opacity="0.69"/>
<stop offset="1" stop-opacity="0"/>
</linearGradient>
<linearGradient id="paint25_linear" x1="4919.46" y1="55659.1" x2="18571" y2="56001.6" gradientUnits="userSpaceOnUse">
<stop offset="0.01"/>
<stop offset="0.13" stop-opacity="0.69"/>
<stop offset="1" stop-opacity="0"/>
</linearGradient>
<linearGradient id="paint26_linear" x1="3848.77" y1="25168.4" x2="6048.47" y2="24964.7" gradientUnits="userSpaceOnUse">
<stop offset="0.01"/>
<stop offset="0.13" stop-opacity="0.69"/>
<stop offset="1" stop-opacity="0"/>
</linearGradient>
<linearGradient id="paint27_linear" x1="8449.55" y1="-16972.7" x2="8953.59" y2="-16972.7" gradientUnits="userSpaceOnUse">
<stop stop-color="#ECC4D7"/>
<stop offset="0.42" stop-color="#EFD4D1"/>
<stop offset="1" stop-color="#F2EAC9"/>
</linearGradient>
<linearGradient id="paint28_linear" x1="19373.8" y1="46260.1" x2="24755.2" y2="29209.8" gradientUnits="userSpaceOnUse">
<stop offset="0.01"/>
<stop offset="0.13" stop-opacity="0.69"/>
<stop offset="1" stop-opacity="0"/>
</linearGradient>
<linearGradient id="paint29_linear" x1="4124.32" y1="9024.96" x2="4916.41" y2="9119.5" gradientUnits="userSpaceOnUse">
<stop offset="0.01"/>
<stop offset="0.13" stop-opacity="0.69"/>
<stop offset="1" stop-opacity="0"/>
</linearGradient>
<linearGradient id="paint30_linear" x1="13668.1" y1="-7858.14" x2="17459.9" y2="-7858.14" gradientUnits="userSpaceOnUse">
<stop stop-color="#ECC4D7"/>
<stop offset="0.42" stop-color="#EFD4D1"/>
<stop offset="1" stop-color="#F2EAC9"/>
</linearGradient>
<linearGradient id="paint31_linear" x1="29598.1" y1="82745.7" x2="58714.8" y2="63925.2" gradientUnits="userSpaceOnUse">
<stop offset="0.01"/>
<stop offset="0.13" stop-opacity="0.69"/>
<stop offset="1" stop-opacity="0"/>
</linearGradient>
<linearGradient id="paint32_linear" x1="19830.3" y1="16205.6" x2="15987.5" y2="19407.1" gradientUnits="userSpaceOnUse">
<stop offset="0.01"/>
<stop offset="0.13" stop-opacity="0.69"/>
<stop offset="1" stop-opacity="0"/>
</linearGradient>
<linearGradient id="paint33_linear" x1="96170.1" y1="56090.3" x2="119496" y2="56090.3" gradientUnits="userSpaceOnUse">
<stop offset="0.01"/>
<stop offset="0.13" stop-opacity="0.69"/>
<stop offset="1" stop-opacity="0"/>
</linearGradient>
<linearGradient id="paint34_linear" x1="38257.2" y1="-29682.5" x2="41801.6" y2="-29682.5" gradientUnits="userSpaceOnUse">
<stop stop-color="#ECC4D7"/>
<stop offset="0.42" stop-color="#EFD4D1"/>
<stop offset="1" stop-color="#F2EAC9"/>
</linearGradient>
<linearGradient id="paint35_linear" x1="92315.4" y1="96548" x2="142811" y2="84505.2" gradientUnits="userSpaceOnUse">
<stop offset="0.01"/>
<stop offset="0.13" stop-opacity="0.69"/>
<stop offset="1" stop-opacity="0"/>
</linearGradient>
<linearGradient id="paint36_linear" x1="85326" y1="54828.9" x2="96949.8" y2="60577.1" gradientUnits="userSpaceOnUse">
<stop offset="0.01"/>
<stop offset="0.13" stop-opacity="0.69"/>
<stop offset="1" stop-opacity="0"/>
</linearGradient>
<linearGradient id="paint37_linear" x1="13504.5" y1="-42936.5" x2="18992.7" y2="-42936.5" gradientUnits="userSpaceOnUse">
<stop stop-color="#ECC4D7"/>
<stop offset="0.42" stop-color="#EFD4D1"/>
<stop offset="1" stop-color="#F2EAC9"/>
</linearGradient>
<linearGradient id="paint38_linear" x1="5635.92" y1="3926.08" x2="5970.58" y2="7273.71" gradientUnits="userSpaceOnUse">
<stop stop-color="#ECC4D7"/>
<stop offset="0.42" stop-color="#EFD4D1"/>
<stop offset="1" stop-color="#F2EAC9"/>
</linearGradient>
<linearGradient id="paint39_linear" x1="86795.7" y1="73962.4" x2="96927.6" y2="124809" gradientUnits="userSpaceOnUse">
<stop offset="0.01"/>
<stop offset="0.13" stop-opacity="0.69"/>
<stop offset="1" stop-opacity="0"/>
</linearGradient>
<linearGradient id="paint40_linear" x1="158456" y1="9381.8" x2="158446" y2="14439.4" gradientUnits="userSpaceOnUse">
<stop offset="0.01"/>
<stop offset="0.13" stop-opacity="0.69"/>
<stop offset="1" stop-opacity="0"/>
</linearGradient>
<linearGradient id="paint41_linear" x1="15507.2" y1="10937.9" x2="13416.3" y2="13062.7" gradientUnits="userSpaceOnUse">
<stop offset="0.01"/>
<stop offset="0.13" stop-opacity="0.69"/>
<stop offset="1" stop-opacity="0"/>
</linearGradient>
<linearGradient id="paint42_linear" x1="12443.5" y1="14925.9" x2="12374.6" y2="16417" gradientUnits="userSpaceOnUse">
<stop offset="0.01"/>
<stop offset="0.13" stop-opacity="0.69"/>
<stop offset="1" stop-opacity="0"/>
</linearGradient>
<linearGradient id="paint43_linear" x1="60161.7" y1="30345.7" x2="96907.4" y2="48094" gradientUnits="userSpaceOnUse">
<stop offset="0.01"/>
<stop offset="0.13" stop-opacity="0.69"/>
<stop offset="1" stop-opacity="0"/>
</linearGradient>
<linearGradient id="paint44_linear" x1="30715.7" y1="-5677.57" x2="33847.1" y2="-5677.57" gradientUnits="userSpaceOnUse">
<stop stop-color="#ECC4D7"/>
<stop offset="0.42" stop-color="#EFD4D1"/>
<stop offset="1" stop-color="#F2EAC9"/>
</linearGradient>
<clipPath id="clip0">
<rect width="773.54" height="579.71" fill="white"/>
</clipPath>
</defs>
</svg>
